<svg preserveAspectRatio="none" width="100%" height="100%" overflow="visible" style="display: block;" viewBox="0 0 21.9629 19.0352" fill="none" xmlns="http://www.w3.org/2000/svg">
<path id="Subtract" d="M17.5703 0C19.9963 0 21.9628 1.96666 21.9629 4.39258V14.6426C21.9627 17.0684 19.9962 19.0352 17.5703 19.0352H4.39258C1.96673 19.0351 0.000178946 17.0684 0 14.6426V4.39258C8.79788e-05 1.96668 1.96667 3.71718e-05 4.39258 0H17.5703ZM11.2275 5.85742C9.88004 5.85742 8.78755 6.95045 8.78711 8.29785C8.78711 9.19918 9.27708 9.98461 10.0039 10.4072V13.1787H12.4443V10.4111C13.1747 9.98943 13.668 9.20185 13.668 8.29785C13.6675 6.95054 12.5749 5.85756 11.2275 5.85742Z" fill="var(--fill-0, #A8A9AB)"/>
</svg>
