<svg preserveAspectRatio="none" width="100%" height="100%" overflow="visible" style="display: block;" viewBox="0 0 88 82.9089" fill="none" xmlns="http://www.w3.org/2000/svg">
<g id="Group 30">
<path id="Vector" d="M16.2349 57.2354C24.3525 35.5883 31.7937 29.5 48.0291 31.5294C71.0291 34.4044 71.7056 28.8235 77.1174 9.88232" stroke="var(--stroke-0, #B1B1FA)" stroke-width="10.8236" stroke-linecap="round"/>
<path id="Vector_2" d="M76.5 23C82.8513 23 88 17.8513 88 11.5C88 5.14873 82.8513 0 76.5 0C70.1487 0 65 5.14873 65 11.5C65 17.8513 70.1487 23 76.5 23Z" fill="var(--fill-0, #9762FF)"/>
<path id="Vector_3" d="M76.5 19C80.6421 19 84 15.6421 84 11.5C84 7.35786 80.6421 4 76.5 4C72.3579 4 69 7.35786 69 11.5C69 15.6421 72.3579 19 76.5 19Z" fill="var(--fill-0, white)"/>
<g id="Vector_4" filter="url(#filter0_d_0_4)">
<path d="M20.7879 6H7.44697C4.99098 6 3 7.99098 3 10.447C3 12.903 4.99098 14.8939 7.44697 14.8939H20.7879C23.2439 14.8939 25.2349 12.903 25.2349 10.447C25.2349 7.99098 23.2439 6 20.7879 6Z" fill="var(--fill-0, #A7DCD6)"/>
</g>
<g id="Vector_5" filter="url(#filter1_d_0_4)">
<path d="M11.8939 19.3409H7.44697C4.99098 19.3409 3 21.3319 3 23.7879C3 26.2439 4.99098 28.2349 7.44697 28.2349H11.8939C14.3499 28.2349 16.3409 26.2439 16.3409 23.7879C16.3409 21.3319 14.3499 19.3409 11.8939 19.3409Z" fill="var(--fill-0, #F4A261)"/>
</g>
<g id="Ellipse 691" filter="url(#filter2_d_0_4)">
<path d="M28.4118 55.206C28.4118 63.0518 14.2059 78.3841 14.2059 78.3841C14.2059 78.3841 0 63.0518 0 55.206C0 47.3603 6.36021 41.0001 14.2059 41.0001C22.0516 41.0001 28.4118 47.3603 28.4118 55.206Z" fill="var(--fill-0, #9762FF)"/>
</g>
<circle id="Ellipse 692" cx="14.2059" cy="55.2061" r="5.23376" fill="var(--fill-0, #FFDE3E)"/>
<g id="Group 28">
<path id="Vector_6" d="M43.5298 46.1765V39.4118C43.5298 36.4231 45.9529 34 48.9416 34H59.7651C62.7538 34 65.1769 36.4231 65.1769 39.4118V46.1765" stroke="var(--stroke-0, #F4A261)" stroke-width="6.76472" stroke-linecap="round"/>
<g id="Vector_7" filter="url(#filter3_d_0_4)">
<path d="M69.2354 46.1765H39.4706C34.2401 46.1765 30 50.4166 30 55.6471V69.1765C30 74.407 34.2401 78.6471 39.4706 78.6471H69.2354C74.4659 78.6471 78.706 74.407 78.706 69.1765V55.6471C78.706 50.4166 74.4659 46.1765 69.2354 46.1765Z" fill="var(--fill-0, #9762FF)"/>
</g>
<path id="Vector_8" d="M78.0293 57.6768V64.4415H30.6768V57.6768H78.0293Z" fill="var(--fill-0, #FFDE3E)" stroke="var(--stroke-0, #FFDE3E)" stroke-width="1.35294"/>
<path id="Vector_9" d="M55.7061 54.2941H53.0002C50.7586 54.2941 48.9414 56.1113 48.9414 58.353V63.7647C48.9414 66.0064 50.7586 67.8236 53.0002 67.8236H55.7061C57.9478 67.8236 59.765 66.0064 59.765 63.7647V58.353C59.765 56.1113 57.9478 54.2941 55.7061 54.2941Z" fill="var(--fill-0, white)"/>
</g>
<path id="Vector 4" d="M15.2915 44.4713C17.275 44.7279 21.193 45.6192 23.2081 49.5288" stroke="var(--stroke-0, white)" stroke-width="2" stroke-linecap="round"/>
<circle id="Ellipse 693" cx="24" cy="53" r="1" fill="var(--fill-0, white)"/>
</g>
<defs>
<filter id="filter0_d_0_4" x="3" y="6" width="22.2349" height="9.95108" filterUnits="userSpaceOnUse" color-interpolation-filters="sRGB">
<feFlood flood-opacity="0" result="BackgroundImageFix"/>
<feColorMatrix in="SourceAlpha" type="matrix" values="0 0 0 0 0 0 0 0 0 0 0 0 0 0 0 0 0 0 127 0" result="hardAlpha"/>
<feOffset dy="1.05714"/>
<feComposite in2="hardAlpha" operator="out"/>
<feColorMatrix type="matrix" values="0 0 0 0 0.275677 0 0 0 0 0.413349 0 0 0 0 0.397763 0 0 0 1 0"/>
<feBlend mode="normal" in2="BackgroundImageFix" result="effect1_dropShadow_0_4"/>
<feBlend mode="normal" in="SourceGraphic" in2="effect1_dropShadow_0_4" result="shape"/>
</filter>
<filter id="filter1_d_0_4" x="3" y="19.3409" width="13.3409" height="9.95108" filterUnits="userSpaceOnUse" color-interpolation-filters="sRGB">
<feFlood flood-opacity="0" result="BackgroundImageFix"/>
<feColorMatrix in="SourceAlpha" type="matrix" values="0 0 0 0 0 0 0 0 0 0 0 0 0 0 0 0 0 0 127 0" result="hardAlpha"/>
<feOffset dy="1.05714"/>
<feComposite in2="hardAlpha" operator="out"/>
<feColorMatrix type="matrix" values="0 0 0 0 0.444467 0 0 0 0 0.298053 0 0 0 0 0.181992 0 0 0 1 0"/>
<feBlend mode="normal" in2="BackgroundImageFix" result="effect1_dropShadow_0_4"/>
<feBlend mode="normal" in="SourceGraphic" in2="effect1_dropShadow_0_4" result="shape"/>
</filter>
<filter id="filter2_d_0_4" x="0" y="41.0001" width="28.4118" height="41.6458" filterUnits="userSpaceOnUse" color-interpolation-filters="sRGB">
<feFlood flood-opacity="0" result="BackgroundImageFix"/>
<feColorMatrix in="SourceAlpha" type="matrix" values="0 0 0 0 0 0 0 0 0 0 0 0 0 0 0 0 0 0 127 0" result="hardAlpha"/>
<feOffset dy="4.26178"/>
<feComposite in2="hardAlpha" operator="out"/>
<feColorMatrix type="matrix" values="0 0 0 0 0.243137 0 0 0 0 0.0392157 0 0 0 0 0.662745 0 0 0 1 0"/>
<feBlend mode="normal" in2="BackgroundImageFix" result="effect1_dropShadow_0_4"/>
<feBlend mode="normal" in="SourceGraphic" in2="effect1_dropShadow_0_4" result="shape"/>
</filter>
<filter id="filter3_d_0_4" x="30" y="46.1765" width="48.706" height="36.7324" filterUnits="userSpaceOnUse" color-interpolation-filters="sRGB">
<feFlood flood-opacity="0" result="BackgroundImageFix"/>
<feColorMatrix in="SourceAlpha" type="matrix" values="0 0 0 0 0 0 0 0 0 0 0 0 0 0 0 0 0 0 127 0" result="hardAlpha"/>
<feOffset dy="4.26178"/>
<feComposite in2="hardAlpha" operator="out"/>
<feColorMatrix type="matrix" values="0 0 0 0 0.243137 0 0 0 0 0.0392157 0 0 0 0 0.662745 0 0 0 1 0"/>
<feBlend mode="normal" in2="BackgroundImageFix" result="effect1_dropShadow_0_4"/>
<feBlend mode="normal" in="SourceGraphic" in2="effect1_dropShadow_0_4" result="shape"/>
</filter>
</defs>
</svg>
