<svg preserveAspectRatio="none" width="100%" height="100%" overflow="visible" style="display: block;" viewBox="0 0 80.0004 83.4638" fill="none" xmlns="http://www.w3.org/2000/svg">
<g id="Group 26">
<g id="Vector" filter="url(#filter0_d_0_19)">
<path d="M0 25.794C0 11.5481 11.5481 0 25.794 0H60.6917C62.3677 0 63.7263 1.35863 63.7263 3.03459V60.6917C63.7263 62.3677 62.3677 63.7263 60.6917 63.7263H25.794C11.5481 63.7263 0 52.1782 0 37.9323V25.794Z" fill="var(--fill-0, #8080EF)"/>
</g>
<g id="Subtract" filter="url(#filter1_d_0_19)">
<path d="M18.6621 60.6919C26.9199 60.6919 33.8078 65.9043 35.3897 72.8296H1.93458C3.51642 65.9043 10.4043 60.6919 18.6621 60.6919Z" fill="var(--fill-0, #9762FF)"/>
</g>
<g id="Vector_2" filter="url(#filter2_d_0_19)">
<path d="M21.2417 33.3805C21.2417 20.8112 31.4318 10.6211 44.0011 10.6211H69.7951C71.471 10.6211 72.8297 11.9797 72.8297 13.6557V69.7955C72.8297 71.4715 71.471 72.8301 69.7951 72.8301H44.0011C31.4318 72.8301 21.2417 62.64 21.2417 50.0707V33.3805Z" fill="var(--fill-0, #FF9866)"/>
</g>
<path id="Vector_3" d="M30.3457 44.0016C36.2115 44.0016 40.9668 39.2464 40.9668 33.3805C40.9668 27.5147 36.2115 22.7595 30.3457 22.7595C24.4799 22.7595 19.7246 27.5147 19.7246 33.3805C19.7246 39.2464 24.4799 44.0016 30.3457 44.0016Z" fill="var(--fill-0, white)"/>
<path id="Vector_4" d="M51.5883 51.5879C57.4542 51.5879 62.2094 46.8327 62.2094 40.9669C62.2094 35.101 57.4542 30.3458 51.5883 30.3458C45.7225 30.3458 40.9673 35.101 40.9673 40.9669C40.9673 46.8327 45.7225 51.5879 51.5883 51.5879Z" fill="var(--fill-0, white)"/>
<g id="Subtract_2" filter="url(#filter3_d_0_19)">
<path d="M63.2728 68.2782C71.5309 68.2782 78.4189 73.4912 80.0004 80.4168H46.5453C48.1268 73.4912 55.0147 68.2782 63.2728 68.2782Z" fill="var(--fill-0, #9762FF)"/>
</g>
<circle id="Ellipse 688" cx="50.0706" cy="45.5188" r="6.06917" fill="var(--fill-0, black)"/>
<circle id="Ellipse 689" cx="30.3459" cy="37.9323" r="6.06917" fill="var(--fill-0, black)"/>
<path id="Vector 2" d="M51.5877 41.4026C52.267 41.6265 53.6951 42.549 53.973 44.448" stroke="var(--stroke-0, white)" stroke-width="1.51729" stroke-linecap="round"/>
<path id="Vector 3" d="M29.8746 34.4297C30.5876 34.3728 32.2616 34.6698 33.2537 36.3127" stroke="var(--stroke-0, white)" stroke-width="1.51729" stroke-linecap="round"/>
</g>
<defs>
<filter id="filter0_d_0_19" x="0" y="0" width="63.7263" height="66.9668" filterUnits="userSpaceOnUse" color-interpolation-filters="sRGB">
<feFlood flood-opacity="0" result="BackgroundImageFix"/>
<feColorMatrix in="SourceAlpha" type="matrix" values="0 0 0 0 0 0 0 0 0 0 0 0 0 0 0 0 0 0 127 0" result="hardAlpha"/>
<feOffset dy="3.24043"/>
<feComposite in2="hardAlpha" operator="out"/>
<feColorMatrix type="matrix" values="0 0 0 0 0.231373 0 0 0 0 0.231373 0 0 0 0 0.490196 0 0 0 1 0"/>
<feBlend mode="normal" in2="BackgroundImageFix" result="effect1_dropShadow_0_19"/>
<feBlend mode="normal" in="SourceGraphic" in2="effect1_dropShadow_0_19" result="shape"/>
</filter>
<filter id="filter1_d_0_19" x="1.93458" y="60.6919" width="33.4551" height="15.1847" filterUnits="userSpaceOnUse" color-interpolation-filters="sRGB">
<feFlood flood-opacity="0" result="BackgroundImageFix"/>
<feColorMatrix in="SourceAlpha" type="matrix" values="0 0 0 0 0 0 0 0 0 0 0 0 0 0 0 0 0 0 127 0" result="hardAlpha"/>
<feOffset dy="3.04697"/>
<feComposite in2="hardAlpha" operator="out"/>
<feColorMatrix type="matrix" values="0 0 0 0 0.243137 0 0 0 0 0.0392157 0 0 0 0 0.662745 0 0 0 1 0"/>
<feBlend mode="normal" in2="BackgroundImageFix" result="effect1_dropShadow_0_19"/>
<feBlend mode="normal" in="SourceGraphic" in2="effect1_dropShadow_0_19" result="shape"/>
</filter>
<filter id="filter2_d_0_19" x="21.2417" y="10.6211" width="51.588" height="65.4495" filterUnits="userSpaceOnUse" color-interpolation-filters="sRGB">
<feFlood flood-opacity="0" result="BackgroundImageFix"/>
<feColorMatrix in="SourceAlpha" type="matrix" values="0 0 0 0 0 0 0 0 0 0 0 0 0 0 0 0 0 0 127 0" result="hardAlpha"/>
<feOffset dy="3.24043"/>
<feComposite in2="hardAlpha" operator="out"/>
<feColorMatrix type="matrix" values="0 0 0 0 0.671969 0 0 0 0 0.319438 0 0 0 0 0.148306 0 0 0 1 0"/>
<feBlend mode="normal" in2="BackgroundImageFix" result="effect1_dropShadow_0_19"/>
<feBlend mode="normal" in="SourceGraphic" in2="effect1_dropShadow_0_19" result="shape"/>
</filter>
<filter id="filter3_d_0_19" x="46.5453" y="68.2782" width="33.4551" height="15.1856" filterUnits="userSpaceOnUse" color-interpolation-filters="sRGB">
<feFlood flood-opacity="0" result="BackgroundImageFix"/>
<feColorMatrix in="SourceAlpha" type="matrix" values="0 0 0 0 0 0 0 0 0 0 0 0 0 0 0 0 0 0 127 0" result="hardAlpha"/>
<feOffset dy="3.04697"/>
<feComposite in2="hardAlpha" operator="out"/>
<feColorMatrix type="matrix" values="0 0 0 0 0.243137 0 0 0 0 0.0392157 0 0 0 0 0.662745 0 0 0 1 0"/>
<feBlend mode="normal" in2="BackgroundImageFix" result="effect1_dropShadow_0_19"/>
<feBlend mode="normal" in="SourceGraphic" in2="effect1_dropShadow_0_19" result="shape"/>
</filter>
</defs>
</svg>
