<svg preserveAspectRatio="none" width="100%" height="100%" overflow="visible" style="display: block;" viewBox="0 0 73.1325 88.4384" fill="none" xmlns="http://www.w3.org/2000/svg">
<g id="Group 29">
<g id="Vector" filter="url(#filter0_d_0_49)">
<path d="M14.2108 60.9849H7.03607C3.73401 60.9849 1.05717 63.6617 1.05717 66.9638V78.9216C1.05717 82.2237 3.73401 84.9005 7.03607 84.9005H14.2108C17.5128 84.9005 20.1897 82.2237 20.1897 78.9216V66.9638C20.1897 63.6617 17.5128 60.9849 14.2108 60.9849Z" fill="var(--fill-0, #9762FF)"/>
</g>
<g id="Vector_2" filter="url(#filter1_d_0_49)">
<path d="M39.5822 46.8435H32.4075C29.1055 46.8435 26.4286 49.5203 26.4286 52.8224V79.1295C26.4286 82.4316 29.1055 85.1084 32.4075 85.1084H39.5822C42.8843 85.1084 45.5611 82.4316 45.5611 79.1295V52.8224C45.5611 49.5203 42.8843 46.8435 39.5822 46.8435Z" fill="var(--fill-0, #9762FF)"/>
</g>
<g id="Vector_3" filter="url(#filter2_d_0_49)">
<path d="M64.9532 29.9292H57.7785C54.4765 29.9292 51.7996 32.6061 51.7996 35.9081V78.9563C51.7996 82.2583 54.4765 84.9352 57.7785 84.9352H64.9532C68.2553 84.9352 70.9321 82.2583 70.9321 78.9563V35.9081C70.9321 32.6061 68.2553 29.9292 64.9532 29.9292Z" fill="var(--fill-0, #9762FF)"/>
</g>
<path id="Vector_4" d="M5.84026 45.4397L20.1896 31.0903L34.539 40.6566L66.2272 8.9684" stroke="var(--stroke-0, #FFDE3E)" stroke-width="8.37047" stroke-linecap="round" stroke-linejoin="round"/>
<path id="Vector_5" d="M62.5662 21.1325C68.4018 21.1325 73.1325 16.4018 73.1325 10.5662C73.1325 4.73067 68.4018 0 62.5662 0C56.7307 0 52 4.73067 52 10.5662C52 16.4018 56.7307 21.1325 62.5662 21.1325Z" fill="var(--fill-0, #00D300)"/>
<path id="Vector_6" d="M62.5658 2.6416L64.9432 7.22958L70.4905 7.99424L66.5281 11.8176L67.3206 17.1702L62.5658 14.8762L57.811 17.1702L58.6035 11.8176L54.6411 7.99424L60.1884 7.22958L62.5658 2.6416Z" fill="var(--fill-0, white)"/>
<g id="Vector_7" filter="url(#filter3_d_0_49)">
<path d="M14.8 9.8436H4.22856C1.89319 9.8436 0 11.7368 0 14.0722C0 16.4075 1.89319 18.3007 4.22856 18.3007H14.8C17.1353 18.3007 19.0285 16.4075 19.0285 14.0722C19.0285 11.7368 17.1353 9.8436 14.8 9.8436Z" fill="var(--fill-0, #F4A261)"/>
</g>
<g id="Vector_8" filter="url(#filter4_d_0_49)">
<path d="M6.34284 21.4721H4.22856C1.89319 21.4721 0 23.3653 0 25.7007C0 28.036 1.89319 29.9292 4.22856 29.9292H6.34284C8.67821 29.9292 10.5714 28.036 10.5714 25.7007C10.5714 23.3653 8.67821 21.4721 6.34284 21.4721Z" fill="var(--fill-0, #F4A261)"/>
</g>
</g>
<defs>
<filter id="filter0_d_0_49" x="1.05717" y="60.9849" width="19.1325" height="27.2456" filterUnits="userSpaceOnUse" color-interpolation-filters="sRGB">
<feFlood flood-opacity="0" result="BackgroundImageFix"/>
<feColorMatrix in="SourceAlpha" type="matrix" values="0 0 0 0 0 0 0 0 0 0 0 0 0 0 0 0 0 0 127 0" result="hardAlpha"/>
<feOffset dy="3.32999"/>
<feComposite in2="hardAlpha" operator="out"/>
<feColorMatrix type="matrix" values="0 0 0 0 0.243137 0 0 0 0 0.0392157 0 0 0 0 0.662745 0 0 0 1 0"/>
<feBlend mode="normal" in2="BackgroundImageFix" result="effect1_dropShadow_0_49"/>
<feBlend mode="normal" in="SourceGraphic" in2="effect1_dropShadow_0_49" result="shape"/>
</filter>
<filter id="filter1_d_0_49" x="26.4286" y="46.8435" width="19.1325" height="41.595" filterUnits="userSpaceOnUse" color-interpolation-filters="sRGB">
<feFlood flood-opacity="0" result="BackgroundImageFix"/>
<feColorMatrix in="SourceAlpha" type="matrix" values="0 0 0 0 0 0 0 0 0 0 0 0 0 0 0 0 0 0 127 0" result="hardAlpha"/>
<feOffset dy="3.32999"/>
<feComposite in2="hardAlpha" operator="out"/>
<feColorMatrix type="matrix" values="0 0 0 0 0.243137 0 0 0 0 0.0392157 0 0 0 0 0.662745 0 0 0 1 0"/>
<feBlend mode="normal" in2="BackgroundImageFix" result="effect1_dropShadow_0_49"/>
<feBlend mode="normal" in="SourceGraphic" in2="effect1_dropShadow_0_49" result="shape"/>
</filter>
<filter id="filter2_d_0_49" x="51.7996" y="29.9292" width="19.1325" height="58.3359" filterUnits="userSpaceOnUse" color-interpolation-filters="sRGB">
<feFlood flood-opacity="0" result="BackgroundImageFix"/>
<feColorMatrix in="SourceAlpha" type="matrix" values="0 0 0 0 0 0 0 0 0 0 0 0 0 0 0 0 0 0 127 0" result="hardAlpha"/>
<feOffset dy="3.32999"/>
<feComposite in2="hardAlpha" operator="out"/>
<feColorMatrix type="matrix" values="0 0 0 0 0.243137 0 0 0 0 0.0392157 0 0 0 0 0.662745 0 0 0 1 0"/>
<feBlend mode="normal" in2="BackgroundImageFix" result="effect1_dropShadow_0_49"/>
<feBlend mode="normal" in="SourceGraphic" in2="effect1_dropShadow_0_49" result="shape"/>
</filter>
<filter id="filter3_d_0_49" x="0" y="9.8436" width="19.0285" height="9.51426" filterUnits="userSpaceOnUse" color-interpolation-filters="sRGB">
<feFlood flood-opacity="0" result="BackgroundImageFix"/>
<feColorMatrix in="SourceAlpha" type="matrix" values="0 0 0 0 0 0 0 0 0 0 0 0 0 0 0 0 0 0 127 0" result="hardAlpha"/>
<feOffset dy="1.05714"/>
<feComposite in2="hardAlpha" operator="out"/>
<feColorMatrix type="matrix" values="0 0 0 0 0.444467 0 0 0 0 0.298053 0 0 0 0 0.181992 0 0 0 1 0"/>
<feBlend mode="normal" in2="BackgroundImageFix" result="effect1_dropShadow_0_49"/>
<feBlend mode="normal" in="SourceGraphic" in2="effect1_dropShadow_0_49" result="shape"/>
</filter>
<filter id="filter4_d_0_49" x="0" y="21.4721" width="10.5714" height="9.51426" filterUnits="userSpaceOnUse" color-interpolation-filters="sRGB">
<feFlood flood-opacity="0" result="BackgroundImageFix"/>
<feColorMatrix in="SourceAlpha" type="matrix" values="0 0 0 0 0 0 0 0 0 0 0 0 0 0 0 0 0 0 127 0" result="hardAlpha"/>
<feOffset dy="1.05714"/>
<feComposite in2="hardAlpha" operator="out"/>
<feColorMatrix type="matrix" values="0 0 0 0 0.444467 0 0 0 0 0.298053 0 0 0 0 0.181992 0 0 0 1 0"/>
<feBlend mode="normal" in2="BackgroundImageFix" result="effect1_dropShadow_0_49"/>
<feBlend mode="normal" in="SourceGraphic" in2="effect1_dropShadow_0_49" result="shape"/>
</filter>
</defs>
</svg>
