<svg xmlns="http://www.w3.org/2000/svg" width="168" height="160" viewBox="0 0 54 51" fill="none">
  <path d="M52.438 42.825L25.346 25.162L26.571 22.594L53.929 40.545L52.438 42.825Z" fill="#FFFFFF"/>
  <path d="M2.394 42.271L0.836 40.014L26.592 22.572L27.816 25.139L2.394 42.271Z" fill="#FFFFFF"/>
  <path d="M28.371 2.429H25.633V25.692H28.371V2.429Z" fill="#FFFFFF"/>
  <path d="M51.369 43.511H2.64C1.682 43.511 0.792 43.002 0.324 42.16C-0.143 41.319 -0.098 40.301 0.414 39.504L24.789 1.145C25.769 -0.382 28.284 -0.382 29.241 1.145L53.595 39.482C54.107 40.301 54.129 41.319 53.684 42.138C53.216 42.979 52.326 43.489 51.369 43.511ZM27.015 2.739L2.729 40.943L26.993 40.788H51.346L39.147 21.908L27.015 2.739Z" fill="#FFFFFF"/>
  <path d="M50.099 43.489C49.92 44.264 49.609 44.906 49.097 45.393C45.468 48.824 34.383 43.047 24.321 32.511C14.259 21.975 9.027 10.664 12.656 7.233C14.192 5.795 17.064 5.994 20.625 7.499L20.915 7.034C15.55 4.577 11.009 4.201 8.582 6.503C3.752 11.063 9.027 24.387 20.358 36.251C31.689 48.115 44.778 54.047 49.609 49.51C51.034 48.182 51.546 46.079 51.323 43.489H50.099Z" fill="#FFFFFF"/>
</svg>
