<svg width="24" height="24" viewBox="0 0 24 24" fill="none" xmlns="http://www.w3.org/2000/svg">
  <path d="M8.8 18.2c-3.8 0-6.8-2.5-6.8-5.6 0-3.1 3-5.6 6.8-5.6 3.7 0 6.8 2.5 6.8 5.6 0 1.1-.4 2.1-1.1 2.9l.7 2.6-2.7-1.4c-.8.2-1.7.5-2.7.5z" stroke="#1D1D1F" stroke-width="1.6" stroke-linejoin="round"/>
  <path d="M17.2 20.2c2.8 0 5-1.8 5-4.1 0-2.3-2.2-4.1-5-4.1-.4 0-.8 0-1.2.1 1.1.9 1.8 2.2 1.8 3.7 0 1.1-.4 2.1-1 2.9l.5 1.9-1.9-1c-.7.2-1.4.4-2.2.4z" stroke="#1D1D1F" stroke-width="1.4" stroke-linejoin="round"/>
</svg>
