<svg preserveAspectRatio="none" width="100%" height="100%" overflow="visible" style="display: block;" viewBox="0 0 769.799 159.492" fill="none" xmlns="http://www.w3.org/2000/svg">
<g id="Group 343">
<path id="Vector 41" d="M652.774 13.3439C650.998 13.6071 646.91 14.4671 645.351 15.2705C640.202 17.9242 666.844 20.6595 678.008 22.2628C695.323 24.7493 710.388 26.3634 721.236 27.1025C723.239 27.2389 725.301 27.5048 727.165 27.8207C740.266 30.0408 728.638 38.6811 726.172 41.1502C726.923 42.2424 734.071 44.0597 745.384 46.0629C750.165 46.8424 752.998 47.1405 759.298 48.1624" stroke="var(--stroke-0, white)" stroke-opacity="0.27" stroke-width="21" stroke-linecap="round"/>
<path id="Vector 42" d="M515.557 14.9122C514.67 15.8503 514.095 19.3046 518.444 22.8915C523.929 27.4154 537.532 29.9464 541.907 30.9952C560.413 35.4314 589.858 38.5166 597.321 41.3691C604.513 44.118 611.381 49.5278 626.211 57.4795C644.636 67.3594 655.555 73.4928 658.367 74.4268C663.824 76.2389 690.511 78.3201 707.973 79.5846C720.544 80.4426 729.1 80.7576 750.201 82.141C754.653 82.5624 756.14 82.9452 758.42 83.0677" stroke="var(--stroke-0, white)" stroke-opacity="0.27" stroke-width="21" stroke-linecap="round"/>
<path id="Vector 43" d="M366.745 14.6379C366.745 16.4704 368.003 21.7328 373.341 27.5603C376.514 31.0237 384.282 35.2958 394.065 40.5774C403.847 45.8591 416.342 51.9649 428.454 56.8415C449.91 65.4808 465.977 69.473 470.659 70.8322C474.848 72.0482 479.673 73.1976 489.999 75.8625C511.059 81.2972 529.747 85.6047 537.254 87.526C540.72 88.4127 544.628 88.8463 565.336 90.0061C586.043 91.1659 623.724 92.9687 643.858 93.9981C668.954 95.2812 676.026 97.4304 682.16 99.1518C690.338 101.447 696.832 103.604 704.5 105.846C711.756 107.968 716.639 110.019 721.833 111.562C727.299 113.186 729.872 114.888 734.832 116.553C736.241 117.039 737.706 117.59 738.848 118.078C739.991 118.565 740.766 118.973 739.738 119.212" stroke="var(--stroke-0, white)" stroke-opacity="0.27" stroke-width="21" stroke-linecap="round"/>
<path id="Vector 44" d="M155.645 10.5025C156.301 13.0666 157.706 17.3055 159.659 22.1282C160.761 24.8483 166.105 28.6649 186.229 38.8916C200.769 46.2805 229.701 57.4718 258.328 67.1622C286.956 76.8526 315.834 84.5336 332.448 89.109C360.945 96.9569 369.537 100.905 375.353 102.882C382.3 105.243 394.159 108.507 416.024 112.23C432.886 115.101 457.668 118.906 472.539 121.835C484.962 124.282 495.589 130.117 499.973 131.9C504.281 133.7 508.629 135.082 512.403 136.422C513.274 136.77 514.017 137.124 514.776 137.756" stroke="var(--stroke-0, white)" stroke-opacity="0.27" stroke-width="21" stroke-linecap="round"/>
<path id="Vector 45" d="M37.1372 14.9934C37.1372 15.1121 37.6164 15.8061 40.0238 19.1542C45.4092 26.6437 51.1648 33.275 58.804 37.6926C70.1987 44.2819 82.7429 48.6929 87.1165 50.2812C89.1771 51.0295 90.8044 51.6778 106.145 57.1816C121.486 62.6854 150.463 73.0293 166.939 79.2182C183.416 85.407 186.515 87.1272 188.934 88.717C191.354 90.3068 193 91.7141 196.819 97.8397C200.638 103.965 206.58 114.767 213.258 123.568C219.936 132.369 227.171 138.842 232.421 142.872C237.672 146.903 240.72 148.295 242.601 148.784C244.482 149.274 245.103 148.818 244.774 148.274C244.445 147.73 243.146 147.112 241.807 146.474" stroke="var(--stroke-0, white)" stroke-opacity="0.27" stroke-width="21" stroke-linecap="round"/>
<path id="Vector 46" d="M10.5024 62.6263C11.0072 64.683 14.2042 67.6555 16.4803 71.1767C18.4958 74.2946 21.6663 80.091 38.2726 86.3202C52.6562 91.7157 65.5563 95.0078 70.6058 97.1587C80.7235 101.468 92.2627 107.937 100.175 113.988C106.352 118.711 99.9505 121.198 99.2805 123.19C98.6694 125.007 87.7189 126.022 84.2158 127.621C82.1834 128.55 79.8687 129.506 78.2087 130.328C75.2424 131.797 85.8236 133.101 89.6317 134.51C89.2873 136.813 86.3704 138.342 83.2956 140.007C82.9213 140.495 83.0789 141.05 86.61 142.337" stroke="var(--stroke-0, white)" stroke-opacity="0.27" stroke-width="21" stroke-linecap="round"/>
</g>
</svg>
