<svg preserveAspectRatio="none" width="100%" height="100%" overflow="visible" style="display: block;" viewBox="0 0 24 24" fill="none" xmlns="http://www.w3.org/2000/svg">
<g id="Frame 633566">
<path id="Vector" d="M11.834 10C14.0431 10 15.834 8.20914 15.834 6C15.834 3.79086 14.0431 2 11.834 2C9.62485 2 7.83398 3.79086 7.83398 6C7.83398 8.20914 9.62485 10 11.834 10Z" fill="url(#paint0_linear_0_20)" stroke="url(#paint1_linear_0_20)" stroke-width="1.5" stroke-linecap="round" stroke-linejoin="round"/>
<path id="Subtract" d="M11.835 12C16.6774 12 20.7159 15.4419 21.6375 20.0128C21.8558 21.0955 20.9395 22 19.835 22H3.83496C2.73039 22 1.8141 21.0955 2.03241 20.0128C2.95401 15.4419 6.99253 12 11.835 12Z" fill="url(#paint2_linear_0_20)"/>
</g>
<defs>
<linearGradient id="paint0_linear_0_20" x1="7.83398" y1="6" x2="15.834" y2="6" gradientUnits="userSpaceOnUse">
<stop stop-color="#E7C2FF"/>
<stop offset="1" stop-color="#9762FF"/>
</linearGradient>
<linearGradient id="paint1_linear_0_20" x1="7.83398" y1="6" x2="15.834" y2="6" gradientUnits="userSpaceOnUse">
<stop stop-color="#E7C2FF"/>
<stop offset="1" stop-color="#9762FF"/>
</linearGradient>
<linearGradient id="paint2_linear_0_20" x1="2" y1="17" x2="21.6699" y2="17" gradientUnits="userSpaceOnUse">
<stop stop-color="#E7C2FF"/>
<stop offset="1" stop-color="#9762FF"/>
</linearGradient>
</defs>
</svg>
