<svg preserveAspectRatio="none" width="100%" height="100%" overflow="visible" style="display: block;" viewBox="0 0 22.8523 21.0401" fill="none" xmlns="http://www.w3.org/2000/svg">
<g id="Group 202">
<path id="Rectangle 3478979" d="M17.2736 14.4952C17.0166 14.3608 16.9416 14.0539 17.1072 13.8145L19.8594 9.83748C19.9647 9.68523 20.148 9.59156 20.3405 9.59156L21.9435 9.59155C22.3533 9.59155 22.5911 9.99262 22.3767 10.322L19.3389 14.9876C19.1818 15.2288 18.8459 15.3169 18.591 15.1837L17.2736 14.4952Z" fill="var(--fill-0, #B1B1FA)"/>
<path id="Vector" d="M4.33745 2.43059H1.03987V5.07757C1.03987 7.92062 3.27751 9.68528 6.22179 9.68528" stroke="var(--stroke-0, #9762FF)" stroke-width="2.07974" stroke-linecap="round"/>
<path id="Vector_2" d="M14.8424 2.43059H18.14V5.07757C18.14 7.92062 15.9023 9.68528 12.9581 9.68528" stroke="var(--stroke-0, #9762FF)" stroke-width="2.07974" stroke-linecap="round"/>
<path id="Vector_3" d="M9.63362 12.6152L9.63362 17.279" stroke="var(--stroke-0, #9762FF)" stroke-width="2.20464" stroke-linecap="round"/>
<g id="Vector_4" filter="url(#filter0_d_0_91)">
<path d="M14.848 15.5459H4.42094C3.72292 15.5459 3.15706 16.2208 3.15706 17.0534V18.184C3.15706 19.0165 3.72292 19.6914 4.42094 19.6914H14.848C15.546 19.6914 16.1119 19.0165 16.1119 18.184V17.0534C16.1119 16.2208 15.546 15.5459 14.848 15.5459Z" fill="var(--fill-0, #D8C3FF)"/>
</g>
<path id="Vector_5" d="M4.19807 0H15.0801V7.26254C15.0801 10.5994 12.5962 12.9548 9.63909 12.9548C6.68201 12.9548 4.19807 10.5994 4.19807 7.26254V0Z" fill="var(--fill-0, #9762FF)"/>
<path id="Vector_6" d="M9.70854 3.98799C9.78799 3.83582 10.0058 3.83582 10.0852 3.98799L10.8246 5.40428C10.8557 5.46383 10.9131 5.50517 10.9795 5.51576L12.5681 5.76933C12.7443 5.79745 12.8095 6.01703 12.6772 6.1367L11.4983 7.20301C11.4418 7.25405 11.417 7.33138 11.4332 7.40573L11.7547 8.88362C11.793 9.05972 11.6084 9.20054 11.4487 9.1171L9.99525 8.35783C9.93362 8.32564 9.86013 8.32564 9.7985 8.35783L8.34506 9.1171C8.18532 9.20054 8.00077 9.05972 8.03908 8.88362L8.36057 7.40573C8.37674 7.33138 8.35192 7.25405 8.29548 7.20301L7.1166 6.1367C6.9843 6.01703 7.04947 5.79745 7.22563 5.76933L8.81428 5.51576C8.88062 5.50517 8.93804 5.46383 8.96913 5.40428L9.70854 3.98799Z" fill="var(--fill-0, white)"/>
<path id="Rectangle 3478980" d="M18.5854 14.3516C18.8424 14.2173 18.9175 13.9103 18.7518 13.671L15.9996 9.69392C15.8943 9.54168 15.711 9.448 15.5186 9.448L13.9156 9.44799C13.5058 9.44799 13.2679 9.84906 13.4824 10.1784L16.5202 14.844C16.6773 15.0853 17.0131 15.1733 17.2681 15.0401L18.5854 14.3516Z" fill="var(--fill-0, #B1B1FA)"/>
<g id="Vector_7" filter="url(#filter1_d_0_91)">
<path d="M17.7962 19.9452C19.8697 19.9452 21.5505 18.2644 21.5505 16.1909C21.5505 14.1174 19.8697 12.4365 17.7962 12.4365C15.7227 12.4365 14.0418 14.1174 14.0418 16.1909C14.0418 18.2644 15.7227 19.9452 17.7962 19.9452Z" fill="var(--fill-0, #9762FF)"/>
<path d="M17.7957 12.9551C19.5829 12.9551 21.0318 14.4034 21.0321 16.1904C21.0321 17.9777 19.583 19.4268 17.7957 19.4268C16.0086 19.4265 14.5604 17.9776 14.5604 16.1904C14.5606 14.4035 16.0088 12.9553 17.7957 12.9551Z" stroke="var(--stroke-0, #B68BFF)" stroke-width="1.03638"/>
</g>
<path id="Vector_8" d="M17.5643 14.317C17.6417 14.1527 17.8754 14.1527 17.9528 14.317L18.367 15.1971C18.3972 15.2615 18.4574 15.3067 18.5277 15.3178L19.5392 15.4775C19.7161 15.5054 19.783 15.7249 19.6517 15.8468L18.9149 16.531C18.8597 16.5823 18.8354 16.6588 18.8509 16.7325L19.0599 17.7253C19.0974 17.9034 18.9103 18.0444 18.7494 17.9593L17.859 17.4878C17.7962 17.4546 17.721 17.4546 17.6581 17.4878L16.7677 17.9593C16.6069 18.0444 16.4197 17.9034 16.4572 17.7253L16.6662 16.7325C16.6817 16.6588 16.6575 16.5823 16.6022 16.531L15.8654 15.8468C15.7341 15.7249 15.8011 15.5054 15.978 15.4775L16.9894 15.3178C17.0597 15.3067 17.1199 15.2615 17.1502 15.1971L17.5643 14.317Z" fill="var(--fill-0, white)"/>
</g>
<defs>
<filter id="filter0_d_0_91" x="3.15706" y="15.5459" width="12.9548" height="5.24043" filterUnits="userSpaceOnUse" color-interpolation-filters="sRGB">
<feFlood flood-opacity="0" result="BackgroundImageFix"/>
<feColorMatrix in="SourceAlpha" type="matrix" values="0 0 0 0 0 0 0 0 0 0 0 0 0 0 0 0 0 0 127 0" result="hardAlpha"/>
<feOffset dy="1.09489"/>
<feComposite in2="hardAlpha" operator="out"/>
<feColorMatrix type="matrix" values="0 0 0 0 0 0 0 0 0 0 0 0 0 0 0 0 0 0 0.25 0"/>
<feBlend mode="normal" in2="BackgroundImageFix" result="effect1_dropShadow_0_91"/>
<feBlend mode="normal" in="SourceGraphic" in2="effect1_dropShadow_0_91" result="shape"/>
</filter>
<filter id="filter1_d_0_91" x="14.0418" y="12.4365" width="7.50872" height="8.60361" filterUnits="userSpaceOnUse" color-interpolation-filters="sRGB">
<feFlood flood-opacity="0" result="BackgroundImageFix"/>
<feColorMatrix in="SourceAlpha" type="matrix" values="0 0 0 0 0 0 0 0 0 0 0 0 0 0 0 0 0 0 127 0" result="hardAlpha"/>
<feOffset dy="1.09489"/>
<feComposite in2="hardAlpha" operator="out"/>
<feColorMatrix type="matrix" values="0 0 0 0 0 0 0 0 0 0 0 0 0 0 0 0 0 0 0.25 0"/>
<feBlend mode="normal" in2="BackgroundImageFix" result="effect1_dropShadow_0_91"/>
<feBlend mode="normal" in="SourceGraphic" in2="effect1_dropShadow_0_91" result="shape"/>
</filter>
</defs>
</svg>
