<svg preserveAspectRatio="none" width="100%" height="100%" overflow="visible" style="display: block;" viewBox="0 0 12.1172 14.9452" fill="none" xmlns="http://www.w3.org/2000/svg">
<g id="Group 208">
<path id="Rectangle 3478955" d="M8.88732 6.86667V3.63529C8.88732 2.29682 7.80227 1.21176 6.4638 1.21176H5.65595C4.31747 1.21176 3.23242 2.29681 3.23242 3.63529V6.86667" stroke="var(--stroke-0, #E6E6E6)" stroke-width="2.42353"/>
<path id="Subtract" d="M9.69434 4.44321C11.0327 4.44333 12.1172 5.52863 12.1172 6.86704V12.5213C12.1172 13.8597 11.0327 14.945 9.69434 14.9452H2.42383C1.08535 14.9452 0 13.8598 0 12.5213V6.86704C0 5.52856 1.08535 4.44321 2.42383 4.44321H9.69434ZM6.19629 7.67466C5.45269 7.67466 4.84961 8.27774 4.84961 9.02134C4.84971 9.51943 5.12128 9.95259 5.52344 10.1854V11.7137H6.87012V10.1854C7.27165 9.95243 7.54189 9.51895 7.54199 9.02134C7.54199 8.27783 6.93976 7.6748 6.19629 7.67466Z" fill="var(--fill-0, #E6E6E6)"/>
</g>
</svg>
