<svg preserveAspectRatio="none" width="100%" height="100%" overflow="visible" style="display: block;" viewBox="0 0 24 24" fill="none" xmlns="http://www.w3.org/2000/svg">
<g id="server">
<path id="Subtract" d="M19 1C20.6569 1 22 2.34315 22 4V8C22 9.65685 20.6569 11 19 11H3C1.34315 11 6.44266e-08 9.65685 0 8V4C6.44266e-08 2.34315 1.34315 1 3 1H19ZM4 5C3.44772 5 3 5.44772 3 6C3 6.55228 3.44772 7 4 7C4.55228 7 5 6.55228 5 6C5 5.44772 4.55228 5 4 5Z" fill="url(#paint0_linear_0_35)"/>
<path id="Subtract_2" d="M19 13C20.6569 13 22 14.3431 22 16V20C22 21.6569 20.6569 23 19 23H3C1.34315 23 6.44266e-08 21.6569 0 20V16C6.44266e-08 14.3431 1.34315 13 3 13H19ZM4 17C3.44772 17 3 17.4477 3 18C3 18.5523 3.44772 19 4 19C4.55228 19 5 18.5523 5 18C5 17.4477 4.55228 17 4 17Z" fill="url(#paint1_linear_0_35)"/>
</g>
<defs>
<linearGradient id="paint0_linear_0_35" x1="0" y1="6" x2="22" y2="6" gradientUnits="userSpaceOnUse">
<stop stop-color="#E7C2FF"/>
<stop offset="1" stop-color="#9762FF"/>
</linearGradient>
<linearGradient id="paint1_linear_0_35" x1="0" y1="18" x2="22" y2="18" gradientUnits="userSpaceOnUse">
<stop stop-color="#E7C2FF"/>
<stop offset="1" stop-color="#9762FF"/>
</linearGradient>
</defs>
</svg>
