<svg width="880" height="720" viewBox="0 0 880 720" fill="none" xmlns="http://www.w3.org/2000/svg">
  <rect width="880" height="720" rx="44" fill="#F7FFFC"/>
  <rect x="48" y="48" width="784" height="624" rx="36" fill="white" stroke="#D8F0E9" stroke-width="3"/>
  <path d="M140 566H742" stroke="#DDE9F5" stroke-width="4" stroke-linecap="round"/>
  <g filter="url(#shadow)">
    <rect x="148" y="220" width="78" height="346" rx="24" fill="#2F6BFF"/>
    <rect x="260" y="278" width="78" height="288" rx="24" fill="#18B083"/>
    <rect x="372" y="326" width="78" height="240" rx="24" fill="#F3A23B"/>
    <rect x="484" y="362" width="78" height="204" rx="24" fill="#6D55D8"/>
    <rect x="596" y="398" width="78" height="168" rx="24" fill="#36A7DF"/>
  </g>
  <circle cx="187" cy="180" r="42" fill="#E8F3FF" stroke="#CFE0FF" stroke-width="3"/>
  <circle cx="299" cy="238" r="42" fill="#E8FAF5" stroke="#CBEFE6" stroke-width="3"/>
  <circle cx="411" cy="286" r="42" fill="#FFF4E2" stroke="#F1D9B4" stroke-width="3"/>
  <circle cx="523" cy="322" r="42" fill="#F0ECFF" stroke="#DED7FF" stroke-width="3"/>
  <circle cx="635" cy="358" r="42" fill="#EAF7FF" stroke="#CDE9FB" stroke-width="3"/>
  <text x="187" y="189" text-anchor="middle" fill="#2F6BFF" font-size="30" font-weight="800" font-family="Arial, sans-serif">1</text>
  <text x="299" y="247" text-anchor="middle" fill="#087A64" font-size="30" font-weight="800" font-family="Arial, sans-serif">2</text>
  <text x="411" y="295" text-anchor="middle" fill="#B66A12" font-size="30" font-weight="800" font-family="Arial, sans-serif">3</text>
  <text x="523" y="331" text-anchor="middle" fill="#6D55D8" font-size="30" font-weight="800" font-family="Arial, sans-serif">4</text>
  <text x="635" y="367" text-anchor="middle" fill="#267FAE" font-size="30" font-weight="800" font-family="Arial, sans-serif">5</text>
  <text x="112" y="112" fill="#102033" font-size="36" font-weight="800" font-family="Arial, 'Noto Sans SC', sans-serif">职业能力迁移</text>
  <text x="112" y="154" fill="#617796" font-size="21" font-family="Arial, 'Noto Sans SC', sans-serif">把抽象推理转译成业务、工程和研究问题</text>
  <g font-family="Arial, 'Noto Sans SC', sans-serif" font-size="18" font-weight="700">
    <text x="113" y="620" fill="#2F6BFF">教育教研</text>
    <text x="245" y="620" fill="#087A64">商业运营</text>
    <text x="365" y="620" fill="#B66A12">数据算法</text>
    <text x="482" y="620" fill="#6D55D8">金融保险</text>
    <text x="596" y="620" fill="#267FAE">政府研究</text>
  </g>
  <g opacity="0.95">
    <rect x="690" y="126" width="78" height="78" rx="24" fill="#F8FBFF" stroke="#DDE9F5" stroke-width="2"/>
    <path d="M713 168C719 152 739 150 746 166C751 178 739 190 729 190C718 190 709 180 713 168Z" fill="#2F6BFF" opacity="0.88"/>
    <path d="M694 238H786" stroke="#DDE9F5" stroke-width="3" stroke-linecap="round"/>
    <path d="M694 268H764" stroke="#DDE9F5" stroke-width="3" stroke-linecap="round"/>
    <path d="M694 298H778" stroke="#DDE9F5" stroke-width="3" stroke-linecap="round"/>
    <rect x="694" y="328" width="96" height="48" rx="18" fill="#E8FAF5"/>
    <text x="742" y="360" text-anchor="middle" fill="#087A64" font-size="18" font-weight="800" font-family="Arial, 'Noto Sans SC', sans-serif">建模</text>
  </g>
  <defs>
    <filter id="shadow" x="120" y="200" width="582" height="394" filterUnits="userSpaceOnUse" color-interpolation-filters="sRGB">
      <feDropShadow dx="0" dy="16" stdDeviation="16" flood-color="#1C6657" flood-opacity="0.12"/>
    </filter>
  </defs>
</svg>
