<svg width="880" height="720" viewBox="0 0 880 720" fill="none" xmlns="http://www.w3.org/2000/svg">
  <rect width="880" height="720" rx="44" fill="#F6FAFF"/>
  <rect x="42" y="42" width="796" height="636" rx="36" fill="white" stroke="#DCE8F6" stroke-width="3"/>
  <circle cx="712" cy="120" r="82" fill="#E8F3FF"/>
  <circle cx="158" cy="604" r="94" fill="#EEFDF8"/>
  <path d="M150 214C244 162 336 162 430 214C524 266 616 266 730 198" stroke="#C9DCF7" stroke-width="8" stroke-linecap="round"/>
  <path d="M152 516C246 458 340 456 432 512C524 568 618 566 728 494" stroke="#C7EFE6" stroke-width="8" stroke-linecap="round"/>
  <g filter="url(#shadow)">
    <rect x="96" y="116" width="190" height="150" rx="24" fill="#F8FBFF" stroke="#D9E8FA" stroke-width="2"/>
    <rect x="345" y="116" width="190" height="150" rx="24" fill="#F7FFFC" stroke="#D8F0E9" stroke-width="2"/>
    <rect x="594" y="116" width="190" height="150" rx="24" fill="#FFF9F0" stroke="#F3DFC1" stroke-width="2"/>
    <rect x="96" y="404" width="190" height="150" rx="24" fill="#F7F4FF" stroke="#E2DCFF" stroke-width="2"/>
    <rect x="345" y="404" width="190" height="150" rx="24" fill="#F8FBFF" stroke="#D9E8FA" stroke-width="2"/>
    <rect x="594" y="404" width="190" height="150" rx="24" fill="#F7FFFC" stroke="#D8F0E9" stroke-width="2"/>
  </g>
  <text x="128" y="154" fill="#2F6BFF" font-size="24" font-weight="800" font-family="Arial, 'Noto Sans SC', sans-serif">大一</text>
  <text x="128" y="192" fill="#173158" font-size="23" font-weight="700" font-family="Arial, 'Noto Sans SC', sans-serif">分析与代数</text>
  <text x="128" y="228" fill="#617796" font-size="18" font-family="Arial, 'Noto Sans SC', sans-serif">极限 · 矩阵 · 证明</text>
  <text x="377" y="154" fill="#087A64" font-size="24" font-weight="800" font-family="Arial, 'Noto Sans SC', sans-serif">大二</text>
  <text x="377" y="192" fill="#173158" font-size="23" font-weight="700" font-family="Arial, 'Noto Sans SC', sans-serif">结构与概率</text>
  <text x="377" y="228" fill="#617796" font-size="18" font-family="Arial, 'Noto Sans SC', sans-serif">方程 · 统计 · 抽象</text>
  <text x="626" y="154" fill="#B66A12" font-size="24" font-weight="800" font-family="Arial, 'Noto Sans SC', sans-serif">大三</text>
  <text x="626" y="192" fill="#173158" font-size="23" font-weight="700" font-family="Arial, 'Noto Sans SC', sans-serif">方向深化</text>
  <text x="626" y="228" fill="#617796" font-size="18" font-family="Arial, 'Noto Sans SC', sans-serif">实变 · 数值 · 优化</text>
  <text x="128" y="442" fill="#6D55D8" font-size="24" font-weight="800" font-family="Arial, 'Noto Sans SC', sans-serif">大四</text>
  <text x="128" y="480" fill="#173158" font-size="23" font-weight="700" font-family="Arial, 'Noto Sans SC', sans-serif">论文项目</text>
  <text x="128" y="516" fill="#617796" font-size="18" font-family="Arial, 'Noto Sans SC', sans-serif">建模 · 研究 · 分流</text>
  <text x="377" y="442" fill="#2F6BFF" font-size="24" font-weight="800" font-family="Arial, 'Noto Sans SC', sans-serif">方法</text>
  <text x="377" y="480" fill="#173158" font-size="23" font-weight="700" font-family="Arial, 'Noto Sans SC', sans-serif">证明 + 计算</text>
  <text x="377" y="516" fill="#617796" font-size="18" font-family="Arial, 'Noto Sans SC', sans-serif">从定义到模型</text>
  <text x="626" y="442" fill="#087A64" font-size="24" font-weight="800" font-family="Arial, 'Noto Sans SC', sans-serif">出口</text>
  <text x="626" y="480" fill="#173158" font-size="23" font-weight="700" font-family="Arial, 'Noto Sans SC', sans-serif">理论或应用</text>
  <text x="626" y="516" fill="#617796" font-size="18" font-family="Arial, 'Noto Sans SC', sans-serif">科研 · 数据 · 工程</text>
  <text x="118" y="340" fill="#102033" font-size="54" font-weight="800" font-family="'Times New Roman', serif">lim</text>
  <text x="260" y="352" fill="#6D55D8" font-size="56" font-weight="700" font-family="'Times New Roman', serif">A x = b</text>
  <text x="520" y="352" fill="#087A64" font-size="62" font-weight="700" font-family="'Times New Roman', serif">P(X)</text>
  <path d="M720 324L762 282L804 324" stroke="#B66A12" stroke-width="7" stroke-linecap="round" stroke-linejoin="round"/>
  <path d="M720 324H804" stroke="#F0B565" stroke-width="5" stroke-linecap="round"/>
  <defs>
    <filter id="shadow" x="70" y="98" width="740" height="482" filterUnits="userSpaceOnUse" color-interpolation-filters="sRGB">
      <feDropShadow dx="0" dy="14" stdDeviation="14" flood-color="#244D90" flood-opacity="0.10"/>
    </filter>
  </defs>
</svg>
