<svg width="880" height="720" viewBox="0 0 880 720" fill="none" xmlns="http://www.w3.org/2000/svg">
  <rect width="880" height="720" rx="44" fill="#F7F4FF"/>
  <rect x="48" y="48" width="784" height="624" rx="36" fill="white" stroke="#E1DBFF" stroke-width="3"/>
  <g opacity="0.9">
    <path d="M440 350L214 190" stroke="#D9D2FF" stroke-width="6" stroke-linecap="round"/>
    <path d="M440 350L666 190" stroke="#CFE4FF" stroke-width="6" stroke-linecap="round"/>
    <path d="M440 350L188 500" stroke="#CBEFE6" stroke-width="6" stroke-linecap="round"/>
    <path d="M440 350L692 500" stroke="#F0DFC3" stroke-width="6" stroke-linecap="round"/>
    <path d="M440 350L440 596" stroke="#D8E7F8" stroke-width="6" stroke-linecap="round"/>
  </g>
  <g filter="url(#shadow)">
    <circle cx="440" cy="350" r="98" fill="#F2EFFF" stroke="#D9D2FF" stroke-width="4"/>
    <circle cx="214" cy="190" r="76" fill="#F8FBFF" stroke="#D9E8FA" stroke-width="3"/>
    <circle cx="666" cy="190" r="76" fill="#F7FFFC" stroke="#D8F0E9" stroke-width="3"/>
    <circle cx="188" cy="500" r="76" fill="#FFF7EB" stroke="#F0DFC3" stroke-width="3"/>
    <circle cx="692" cy="500" r="76" fill="#F7F4FF" stroke="#E2DCFF" stroke-width="3"/>
    <circle cx="440" cy="596" r="58" fill="#F8FBFF" stroke="#D9E8FA" stroke-width="3"/>
  </g>
  <text x="440" y="338" text-anchor="middle" fill="#102033" font-size="38" font-weight="800" font-family="Arial, 'Noto Sans SC', sans-serif">数学</text>
  <text x="440" y="384" text-anchor="middle" fill="#6D55D8" font-size="40" font-weight="700" font-family="'Times New Roman', serif">∑ → model</text>
  <g font-family="Arial, 'Noto Sans SC', sans-serif" font-weight="800">
    <text x="214" y="184" text-anchor="middle" fill="#2F6BFF" font-size="24">计算机</text>
    <text x="214" y="220" text-anchor="middle" fill="#617796" font-size="16" font-weight="600">图论 · 密码学</text>
    <text x="666" y="184" text-anchor="middle" fill="#087A64" font-size="24">物理工程</text>
    <text x="666" y="220" text-anchor="middle" fill="#617796" font-size="16" font-weight="600">方程 · 仿真</text>
    <text x="188" y="494" text-anchor="middle" fill="#B66A12" font-size="24">经济金融</text>
    <text x="188" y="530" text-anchor="middle" fill="#617796" font-size="16" font-weight="600">随机 · 优化</text>
    <text x="692" y="494" text-anchor="middle" fill="#6D55D8" font-size="24">生命科学</text>
    <text x="692" y="530" text-anchor="middle" fill="#617796" font-size="16" font-weight="600">统计 · 推断</text>
    <text x="440" y="592" text-anchor="middle" fill="#267FAE" font-size="20">哲学逻辑</text>
    <text x="440" y="620" text-anchor="middle" fill="#617796" font-size="14" font-weight="600">证明语言</text>
  </g>
  <g opacity="0.92">
    <rect x="94" y="84" width="158" height="42" rx="16" fill="#F2EFFF"/>
    <text x="173" y="111" text-anchor="middle" fill="#6D55D8" font-size="18" font-weight="800" font-family="'Times New Roman', serif">A → B</text>
    <rect x="632" y="84" width="158" height="42" rx="16" fill="#E8F3FF"/>
    <text x="711" y="111" text-anchor="middle" fill="#2F6BFF" font-size="18" font-weight="800" font-family="'Times New Roman', serif">dy/dt</text>
    <rect x="86" y="612" width="190" height="42" rx="16" fill="#FFF4E2"/>
    <text x="181" y="639" text-anchor="middle" fill="#B66A12" font-size="18" font-weight="800" font-family="'Times New Roman', serif">E[X]</text>
    <rect x="604" y="612" width="190" height="42" rx="16" fill="#E8FAF5"/>
    <text x="699" y="639" text-anchor="middle" fill="#087A64" font-size="18" font-weight="800" font-family="'Times New Roman', serif">p &lt; 0.05</text>
  </g>
  <defs>
    <filter id="shadow" x="88" y="92" width="680" height="580" filterUnits="userSpaceOnUse" color-interpolation-filters="sRGB">
      <feDropShadow dx="0" dy="16" stdDeviation="16" flood-color="#42348F" flood-opacity="0.12"/>
    </filter>
  </defs>
</svg>
