<svg xmlns="http://www.w3.org/2000/svg" viewBox="0 0 750 1220" fill="none">
  <defs>
    <marker id="math-road-arrow" markerWidth="8" markerHeight="8" refX="7" refY="4" orient="auto">
      <path d="M 0 0 L 8 4 L 0 8 Z" fill="#48C9C3"/>
    </marker>
  </defs>
  <path
    d="M 142 182
      C 100 300 200 410 368 416
      C 488 414 606 406 644 488
      C 674 614 526 726 314 806
      C 146 866 60 990 340 1110
      C 408 1142 462 1174 486 1212"
    stroke="#D7F3EF"
    stroke-width="58"
    stroke-linecap="round"
    stroke-linejoin="round"
  />
  <path d="M 125 330 C 145 420 185 470 235 490" stroke="#48C9C3" stroke-width="5" stroke-linecap="round" fill="none" marker-end="url(#math-road-arrow)" opacity=".78"/>
  <path d="M 670 620 C 640 690 595 735 535 760" stroke="#48C9C3" stroke-width="5" stroke-linecap="round" fill="none" marker-end="url(#math-road-arrow)" opacity=".86"/>
  <path d="M 168 1045 C 204 1121 252 1167 322 1205" stroke="#48C9C3" stroke-width="5" stroke-linecap="round" fill="none" marker-end="url(#math-road-arrow)" opacity=".88"/>
</svg>
