<svg preserveAspectRatio="none" width="100%" height="100%" overflow="visible" style="display: block;" viewBox="0 0 89.3592 74.317" fill="none" xmlns="http://www.w3.org/2000/svg">
<g id="_&#229;&#155;&#190;&#229;&#177;&#130;_1" clip-path="url(#clip0_0_193)">
<path id="Vector" d="M77.1007 48.5817C77.1007 48.5817 76.7219 50.7582 76.2493 51.2308C75.7768 51.7033 60.4495 63.6238 60.4495 63.6238C60.4495 63.6238 47.4414 73.889 46.9676 74.0778C46.4937 74.2666 45.7849 74.5041 44.981 74.0778C44.1772 73.6528 0.0895696 51.9396 0.0895696 51.9396C0.0895696 51.9396 -0.00545515 50.1419 0.0895696 49.7168C0.184594 49.2918 27.7623 28.335 27.7623 28.335C27.7623 28.335 28.2349 27.9562 28.6612 28.0512C29.0875 28.1462 77.1007 48.5817 77.1007 48.5817Z" fill="var(--fill-0, #364E62)"/>
<path id="Vector_2" d="M75.3995 49.9997L47.2067 72.2329C47.2067 72.2329 46.6237 72.848 45.5193 72.4383C44.415 72.0287 0.281165 50.4414 0.281165 50.4414C0.281165 50.4414 -0.353189 49.9406 0.281165 49.3063C0.915519 48.6719 27.0075 28.8554 27.0075 28.8554C27.0075 28.8554 28.0476 27.9899 28.4894 28.0361C28.9311 28.0824 75.3995 48.8183 75.3995 48.8183V50.001V49.9997Z" fill="var(--fill-0, #274054)"/>
<path id="Vector_3" d="M76.5998 50.2168L26.9956 29.2523L39.449 2.35642C40.2785 0.393008 42.5437 -0.52642 44.5071 0.304404L86.9998 15.0538C88.9632 15.8833 89.8827 18.1485 89.0518 20.1119L76.5985 50.2181L76.5998 50.2168Z" fill="var(--fill-0, #364E62)"/>
<path id="Vector_4" d="M75.6858 48.8301L28.6306 28.943L40.3662 3.74349C41.1957 1.78007 43.4609 0.860642 45.4243 1.69147L85.3681 15.3635C87.3315 16.193 88.2509 18.4582 87.4201 20.4216L75.6846 48.8314L75.6858 48.8301Z" fill="var(--fill-0, #274054)"/>
<path id="Vector_5" d="M74.881 46.7054L30.7125 28.0369L41.1665 5.87049C41.9961 3.90708 44.2612 2.98765 46.2247 3.81847L83.283 16.2706C85.2464 17.1001 86.1658 19.3653 85.335 21.3287L74.881 46.7054Z" fill="var(--fill-0, white)"/>
<path id="Vector_6" d="M15.0647 40.3299C15.0647 40.3299 12.5786 41.9505 12.3963 42.4757C12.2139 43.0009 12.1253 43.4028 13.7497 44.3017C15.3754 45.2006 53.6755 63.5917 53.6755 63.5917C53.6755 63.5917 54.3587 64.2042 54.9699 63.5827C55.5812 62.9612 70.1803 51.4825 70.1803 51.4825C70.1803 51.4825 70.8532 50.7069 69.6782 50.1598C68.5032 49.6128 28.1357 31.205 28.1357 31.205C28.1357 31.205 27.2998 30.717 26.3508 31.6493C25.4018 32.5803 15.0634 40.3299 15.0634 40.3299H15.0647Z" fill="var(--fill-0, white)"/>
<path id="Vector_7" d="M23.8838 51.4567L19.7325 54.7993L18.9359 55.4017C18.9359 55.4017 18.5584 55.6858 18.803 55.9383C19.0477 56.1907 31.4013 62.6316 31.6056 62.7794C31.8099 62.9273 32.1986 63.2645 32.9128 62.6327C33.6271 62.001 37.456 58.5374 37.5061 58.3931C37.5561 58.2488 38.0777 57.9942 36.8446 57.3614C35.6116 56.7286 24.7316 51.4684 24.7316 51.4684C24.7316 51.4684 24.2864 51.1312 23.8826 51.4553L23.8838 51.4567Z" fill="var(--fill-0, #FCFFFF)"/>
<path id="Vector_8" d="M16.3493 41.1579C16.3493 41.1579 14.6748 42.478 14.5155 42.7027C14.3563 42.9274 14.0045 43.1868 16.19 44.2282L18.703 42.2764L16.3493 41.1566V41.1579Z" fill="var(--fill-0, #2A294B)"/>
<path id="Vector_9" d="M19.0986 42.6107L16.9721 44.5652L20.6164 46.3655L23.0139 44.2505L19.0986 42.6107Z" fill="var(--fill-0, #2A294B)"/>
<path id="Vector_10" d="M23.5753 44.5108L21.1201 46.5435L23.9451 47.7326L26.1782 45.678L23.5753 44.5108Z" fill="var(--fill-0, #2A294B)"/>
<path id="Vector_11" d="M26.9275 46.1794L24.7201 48.1634L37.257 53.9368L39.5286 51.9053L26.9275 46.1794Z" fill="var(--fill-0, #2A294B)"/>
<path id="Vector_12" d="M40.3455 52.5325L37.8774 54.5396L41.3073 56.1524L43.7086 54.1762L40.3455 52.5325Z" fill="var(--fill-0, #2A294B)"/>
<path id="Vector_13" d="M44.5959 54.5759L42.0315 56.6677C42.0315 56.6677 45.7336 58.549 45.8145 58.4912C45.8954 58.4334 48.4354 56.4405 48.4354 56.4405L44.5959 54.5759Z" fill="var(--fill-0, #2A294B)"/>
<path id="Vector_14" d="M48.9996 56.8445L46.6021 58.9595L49.8497 60.4401L52.2227 58.4381L48.9996 56.8445Z" fill="var(--fill-0, #2A294B)"/>
<path id="Vector_15" d="M53.1691 58.7484L50.7178 60.9057C50.7178 60.9057 53.4953 62.3722 53.7727 62.3914C54.0501 62.4107 54.1977 62.7381 55.0902 62.0768C55.9826 61.4155 57.0048 60.446 57.0048 60.446L53.1704 58.7484H53.1691Z" fill="var(--fill-0, #2A294B)"/>
<path id="Vector_16" d="M18.619 39.462L16.8598 40.7294L20.4502 42.5721L21.9578 41.1891L18.619 39.462Z" fill="var(--fill-0, #2A294B)"/>
<path id="Vector_17" d="M22.3553 41.4802L21.0044 42.5563L23.746 43.7339L25.066 42.5486L22.3553 41.4802Z" fill="var(--fill-0, #2A294B)"/>
<path id="Vector_18" d="M26.0476 43.0804L24.8123 44.3041L27.3356 45.5574L28.6236 44.263L26.0476 43.0804Z" fill="var(--fill-0, #2A294B)"/>
<path id="Vector_19" d="M29.5094 44.6965L28.179 45.8766L31.275 47.3623L32.6324 46.1476L29.5094 44.6965Z" fill="var(--fill-0, #2A294B)"/>
<path id="Vector_20" d="M33.6846 46.8207L32.2553 48.0085L35.5645 49.6804L37.0823 48.1793L33.6846 46.8207Z" fill="var(--fill-0, #2A294B)"/>
<path id="Vector_21" d="M38.1547 48.8005L36.6921 50.1141L40.2221 51.7784L41.7618 50.5674L38.1547 48.8005Z" fill="var(--fill-0, #2A294B)"/>
<path id="Vector_22" d="M42.7795 50.7202L41.2655 51.8772L44.7699 53.6184L46.3083 52.3574L42.7795 50.7202Z" fill="var(--fill-0, #2A294B)"/>
<path id="Vector_23" d="M46.7496 52.7448L45.2677 54.0045L49.2177 55.878L50.887 54.3936L46.7496 52.7448Z" fill="var(--fill-0, #2A294B)"/>
<path id="Vector_24" d="M51.2889 54.8438L49.7261 56.1883C49.7261 56.1883 52.9274 57.9462 53.0379 57.9424C53.1483 57.9385 54.8433 56.3848 54.8433 56.3848L51.2902 54.8438H51.2889Z" fill="var(--fill-0, #2A294B)"/>
<path id="Vector_25" d="M55.6888 56.8678L54.1221 58.1288L57.6316 60.0435L59.4345 58.3754L55.6888 56.8678Z" fill="var(--fill-0, #2A294B)"/>
<path id="Vector_26" d="M20.8624 37.7374L19.3497 38.9418L21.9269 40.1386L23.4371 38.8789L20.8624 37.7374Z" fill="var(--fill-0, #2A294B)"/>
<path id="Vector_27" d="M24.0573 39.3046L22.4907 40.5104L25.7948 42.0167L27.355 40.5901L24.0573 39.3046Z" fill="var(--fill-0, #2A294B)"/>
<path id="Vector_28" d="M28.5313 41.1306L26.9467 42.71L29.4687 43.894L31.0289 42.4532L28.5313 41.1306Z" fill="var(--fill-0, #2A294B)"/>
<path id="Vector_29" d="M31.7597 42.7529L30.2111 44.0396L33.4727 45.5779L35.1305 44.2193L31.7597 42.7529Z" fill="var(--fill-0, #2A294B)"/>
<path id="Vector_30" d="M36.008 45.0056L34.4966 46.2589L37.9945 47.76L39.4507 46.5286L36.008 45.0056Z" fill="var(--fill-0, #2A294B)"/>
<path id="Vector_31" d="M40.4164 47.0202L38.964 48.3685L42.4633 49.9454L44.0556 48.6279L40.4164 47.0202Z" fill="var(--fill-0, #2A294B)"/>
<path id="Vector_32" d="M45.1288 48.8266L43.5904 50.0876L46.9253 51.7121L48.6601 50.5474L45.1288 48.8266Z" fill="var(--fill-0, #2A294B)"/>
<path id="Vector_33" d="M49.293 50.8742L47.7289 52.2045L51.5042 53.7943L52.9886 52.5628L49.293 50.8742Z" fill="var(--fill-0, #2A294B)"/>
<path id="Vector_34" d="M53.6621 52.813C53.6621 52.813 52.1841 54.2371 52.2277 54.3193C52.2714 54.4014 55.5459 55.8255 55.5459 55.8255L57.2461 54.4502L53.6621 52.8143V52.813Z" fill="var(--fill-0, #2A294B)"/>
<path id="Vector_35" d="M58.2773 54.8563L56.6041 56.2033L60.1637 57.951C60.1637 57.951 62.1335 56.3472 61.9974 56.3921C61.8613 56.437 58.2786 54.8563 58.2786 54.8563H58.2773Z" fill="var(--fill-0, #2A294B)"/>
<path id="Vector_36" d="M61.1623 52.424C61.084 52.5639 59.005 54.2269 59.005 54.2269C59.005 54.2269 62.2628 56.0387 62.345 56.0362C62.4272 56.0336 64.6397 54.1729 64.6397 54.1729L61.1623 52.4227V52.424Z" fill="var(--fill-0, #2A294B)"/>
<path id="Vector_37" d="M63.3831 50.8127L61.7638 52.1443L65.2913 53.7405L66.7205 52.5116L63.3831 50.8127Z" fill="var(--fill-0, #2A294B)"/>
<path id="Vector_38" d="M65.3509 49.0972L63.896 50.3479L67.2655 52.1906C67.2655 52.1906 68.5908 51.225 68.524 50.8205C68.4572 50.416 65.3522 49.0972 65.3522 49.0972H65.3509Z" fill="var(--fill-0, #2A294B)"/>
<path id="Vector_39" d="M64.5102 48.7128C64.3741 48.7718 63.0296 50.0585 63.0296 50.0585L59.4264 48.6948L61.1471 47.0421L64.5115 48.7128H64.5102Z" fill="var(--fill-0, #2A294B)"/>
<path id="Vector_40" d="M58.8543 48.9057L57.1246 50.2309L60.7599 51.7243L62.1866 50.4389L58.8543 48.9057Z" fill="var(--fill-0, #2A294B)"/>
<path id="Vector_41" d="M56.6678 50.7086L54.6774 52.342L57.7516 53.7443L59.9179 52.2444L56.6678 50.7086Z" fill="var(--fill-0, #2A294B)"/>
<path id="Vector_42" d="M52.3178 48.4655L50.1078 50.4019L53.851 51.7926L55.9852 50.131L52.3178 48.4655Z" fill="var(--fill-0, #2A294B)"/>
<path id="Vector_43" d="M54.6185 46.6868L52.9773 47.9234L56.7141 49.6095L58.2512 48.2946L54.6185 46.6868Z" fill="var(--fill-0, #2A294B)"/>
<path id="Vector_44" d="M56.5835 45.1379C56.5013 45.1674 55.1003 46.3963 55.1003 46.3963L58.6304 48.0618L60.1379 46.7199L56.5835 45.1379Z" fill="var(--fill-0, #2A294B)"/>
<path id="Vector_45" d="M52.5323 43.1425L50.9952 44.4446L54.4662 45.9907L56.0868 44.7245L52.5323 43.1425Z" fill="var(--fill-0, #2A294B)"/>
<path id="Vector_46" d="M50.431 44.8895L48.9492 46.1518L52.1556 47.6568L53.7582 46.2019L50.431 44.8895Z" fill="var(--fill-0, #2A294B)"/>
<path id="Vector_47" d="M48.1557 46.5712L46.0639 48.2752L49.4142 49.9189L51.4071 48.1687L48.1557 46.5712Z" fill="var(--fill-0, #2A294B)"/>
<path id="Vector_48" d="M43.4473 44.7357L41.2309 46.4474L45.0383 48.1912L47.1135 46.3806L43.4473 44.7357Z" fill="var(--fill-0, #2A294B)"/>
<path id="Vector_49" d="M45.5885 42.9332L43.9243 44.1557L47.8152 45.8661L49.3857 44.7592L45.5885 42.9332Z" fill="var(--fill-0, #2A294B)"/>
<path id="Vector_50" d="M47.6804 41.2295L46.2204 42.321L50.0599 44.1984L51.2413 43.0183L47.6804 41.2295Z" fill="var(--fill-0, #2A294B)"/>
<path id="Vector_51" d="M42.9959 39.2985L41.7041 40.5518L45.2713 42.0503L46.4938 40.8535L42.9959 39.2985Z" fill="var(--fill-0, #2A294B)"/>
<path id="Vector_52" d="M41.1916 40.8693L39.5492 42.3537L42.9341 43.7752L44.4982 42.459L41.1916 40.8693Z" fill="var(--fill-0, #2A294B)"/>
<path id="Vector_53" d="M38.9537 42.7575C38.9537 42.7575 36.8195 44.4089 36.9171 44.4397C37.0147 44.4705 39.936 45.8509 39.936 45.8509L42.2564 44.197L38.955 42.7575H38.9537Z" fill="var(--fill-0, #2A294B)"/>
<path id="Vector_54" d="M34.5921 40.5006C34.5921 40.5006 32.585 42.3909 32.6389 42.3344C32.6929 42.2779 35.5077 43.5209 35.5911 43.5466C35.6746 43.5722 37.3375 41.9787 37.3375 41.9787L34.5921 40.4994V40.5006Z" fill="var(--fill-0, #2A294B)"/>
<path id="Vector_55" d="M36.7087 38.6359L35.047 39.8571L38.2586 41.5894L39.8856 40.0651L36.7087 38.6359Z" fill="var(--fill-0, #2A294B)"/>
<path id="Vector_56" d="M38.3602 37.0293L37.0851 38.1594L40.8411 39.577L41.9262 38.533L38.3602 37.0293Z" fill="var(--fill-0, #2A294B)"/>
<path id="Vector_57" d="M35.0243 35.4445L33.7119 36.5873L36.3585 37.6159L37.5411 36.4756L35.0243 35.4445Z" fill="var(--fill-0, #2A294B)"/>
<path id="Vector_58" d="M32.919 37.1342L31.5977 38.2784L34.2584 39.4996L35.4385 38.263L32.919 37.1342Z" fill="var(--fill-0, #2A294B)"/>
<path id="Vector_59" d="M30.9243 38.8783L29.1458 40.4488L31.6961 41.6456L33.2563 40.2048L30.9243 38.8783Z" fill="var(--fill-0, #2A294B)"/>
<path id="Vector_60" d="M27.4549 37.2811L25.5352 38.7078L28.0854 39.9598L29.8049 38.2802L27.4549 37.2811Z" fill="var(--fill-0, #2A294B)"/>
<path id="Vector_61" d="M28.7774 35.2994C28.7209 35.2737 27.4573 36.4435 27.4573 36.4435L30.4776 37.6814L31.9389 36.6438L28.7774 35.2994Z" fill="var(--fill-0, #2A294B)"/>
<path id="Vector_62" d="M32.1168 34.2062L30.8481 35.2373L32.7242 36.0938L34.3216 34.9702L32.1168 34.2062Z" fill="var(--fill-0, #2A294B)"/>
<path id="Vector_63" d="M26.2599 33.2726C26.2599 33.2726 27.282 32.3313 27.752 32.3172C28.222 32.3031 31.6095 33.835 31.6095 33.835L30.1263 35.0935L26.2612 33.2726H26.2599Z" fill="var(--fill-0, #2A294B)"/>
<path id="Vector_64" d="M25.6697 33.7999L24.1274 34.9364L26.6481 36.1344L28.3496 34.7861L25.6697 33.7999Z" fill="var(--fill-0, #2A294B)"/>
<path id="Vector_65" d="M23.6946 35.4061L21.6452 37.1371L24.7579 38.7089L26.774 36.7942L23.6946 35.4061Z" fill="var(--fill-0, #2A294B)"/>
</g>
<defs>
<clipPath id="clip0_0_193">
<rect width="89.3592" height="74.317" fill="white"/>
</clipPath>
</defs>
</svg>
