<svg preserveAspectRatio="none" width="100%" height="100%" overflow="visible" style="display: block;" viewBox="0 0 76.418 76.2029" fill="none" xmlns="http://www.w3.org/2000/svg">
<g id="Group 327">
<rect id="Rectangle 3479068" x="42.6225" width="0.430524" height="4.73577" rx="0.215262" fill="var(--fill-0, white)"/>
<path id="Subtract" d="M42.8036 3.01382C44.0256 3.01389 45.0278 3.94974 45.1356 5.14371H40.4716C40.5794 3.94971 41.5815 3.01382 42.8036 3.01382Z" fill="var(--fill-0, #EAAC1B)"/>
<rect id="Rectangle 3479067" x="26.2614" y="21.0947" width="33.1504" height="12.0547" fill="var(--fill-0, #E6EAD8)"/>
<path id="Subtract_2" d="M42.8394 4.73673C51.4851 4.73684 58.5833 11.3568 59.3453 19.8041H26.3326C27.0946 11.3567 34.1936 4.73673 42.8394 4.73673Z" fill="var(--fill-0, #597BA6)"/>
<rect id="Rectangle 3479066" x="23.6776" y="19.3739" width="37.8861" height="2.15262" rx="1.07631" fill="var(--fill-0, white)"/>
<g id="Group 326">
<rect id="Rectangle 3479084" x="8.18052" y="42.1913" width="55.9682" height="34.0114" fill="var(--fill-0, #B8BBC3)"/>
<path id="Vector 27" d="M9.47153 39.393H16.5752V44.8614H0L9.47153 39.393Z" fill="var(--fill-0, #5A7C98)"/>
<rect id="Rectangle 3479081" x="51.6629" y="42.1913" width="12.4852" height="34.0114" fill="var(--fill-0, #868C9F)"/>
<rect id="Rectangle 3479082" x="61.9963" y="43.0523" width="9.90206" height="33.1504" fill="var(--fill-0, #5D6B86)"/>
<rect id="Rectangle 3479069" x="12.0533" y="42.1913" width="37.8861" height="2.15262" fill="var(--fill-0, #8B8887)"/>
<rect id="Rectangle 3479078" x="12.0533" y="43.9132" width="37.8861" height="4.30524" fill="var(--fill-0, #EBE9DE)"/>
<rect id="Rectangle 3479072" x="20.6648" y="48.219" width="4.30524" height="1.7221" fill="var(--fill-0, #EDEEF2)"/>
<rect id="Rectangle 3479079" x="12.9173" y="48.219" width="4.30524" height="2.58315" fill="var(--fill-0, #EDEEF2)"/>
<rect id="Rectangle 3479074" x="35.3039" y="48.219" width="4.30524" height="1.7221" fill="var(--fill-0, #EDEEF2)"/>
<rect id="Rectangle 3479076" x="44.7754" y="48.219" width="4.30524" height="1.7221" fill="var(--fill-0, #EDEEF2)"/>
<rect id="Rectangle 3479073" x="21.5267" y="50.8018" width="2.58315" height="25.4009" fill="var(--fill-0, #D9D9D9)"/>
<rect id="Rectangle 3479080" x="13.7772" y="50.8018" width="2.58315" height="25.4009" fill="var(--fill-0, #D9D9D9)"/>
<rect id="Rectangle 3479075" x="36.1639" y="50.8018" width="2.58315" height="25.4009" fill="var(--fill-0, #D9D9D9)"/>
<rect id="Rectangle 3479077" x="45.6353" y="50.8018" width="2.58315" height="25.4009" fill="var(--fill-0, #D9D9D9)"/>
<path id="Vector 24" d="M39.6089 33.1498H35.0884L49.9415 42.4061H54.0315L39.6089 33.1498Z" fill="var(--fill-0, #2F5080)"/>
<path id="Vector 26" d="M76.418 45.6355L61.1344 35.5182L61.9954 44.5592L76.418 45.6355Z" fill="var(--fill-0, #385679)"/>
<rect id="Rectangle 3479083" x="0.861964" y="44.7741" width="11.1936" height="31.4283" fill="var(--fill-0, #FAF3EA)"/>
<rect id="Rectangle 3479089" x="0.861964" y="44.7741" width="11.1936" height="0.861049" fill="var(--fill-0, #8B8887)"/>
<path id="Vector 23" d="M50.2718 42.8709H11.4671C11.0297 42.8709 10.871 42.2942 11.2468 42.0704L30.3507 30.6961C30.4846 30.6164 30.6512 30.6153 30.7862 30.6932L50.4871 42.0675C50.8685 42.2877 50.7123 42.8709 50.2718 42.8709Z" fill="var(--fill-0, white)"/>
<path id="Vector 25" d="M59.8411 32.5044L38.5302 32.9349L53.5985 42.1912L67.3753 43.4827L59.8411 32.5044Z" fill="var(--fill-0, #5378A7)"/>
<rect id="Rectangle 3479085" x="20.6648" y="49.9408" width="4.30524" height="1.29157" fill="var(--fill-0, #494949)"/>
<rect id="Rectangle 3479088" x="12.9173" y="49.9408" width="4.30524" height="1.29157" fill="var(--fill-0, #494949)"/>
<rect id="Rectangle 3479086" x="35.3039" y="49.9408" width="4.30524" height="1.29157" fill="var(--fill-0, #494949)"/>
<rect id="Rectangle 3479087" x="44.7754" y="49.9408" width="4.30524" height="1.29157" fill="var(--fill-0, #494949)"/>
<rect id="Rectangle 3479090" x="3.87477" y="50.8018" width="5.16629" height="8.61049" rx="0.861049" fill="var(--fill-0, #406288)"/>
<path id="Rectangle 3479092" d="M53.8158 51.5936C53.8158 51.1458 54.1591 50.7727 54.6054 50.7355L58.0496 50.4485C58.5516 50.4067 58.9821 50.8029 58.9821 51.3066V58.189C58.9821 58.6368 58.6388 59.0099 58.1926 59.0471L54.7484 59.3341C54.2464 59.3759 53.8158 58.9798 53.8158 58.476V51.5936Z" fill="var(--fill-0, #406288)"/>
<path id="Rectangle 3479094" d="M64.1472 51.9046C64.1472 51.3444 64.6736 50.9334 65.2171 51.0693L68.6613 51.9303C69.0446 52.0261 69.3135 52.3705 69.3135 52.7657V59.601C69.3135 60.1612 68.787 60.5722 68.2436 60.4364L64.7994 59.5753C64.4161 59.4795 64.1472 59.1351 64.1472 58.74V51.9046Z" fill="var(--fill-0, #406288)"/>
<rect id="Rectangle 3479091" x="3.87477" y="62.4261" width="5.16629" height="8.61049" rx="0.861049" fill="var(--fill-0, #406288)"/>
<rect id="Rectangle 3479096" x="26.2614" y="51.2328" width="7.74944" height="23.6788" rx="0.861049" fill="var(--fill-0, #162542)"/>
<path id="Rectangle 3479093" d="M53.8158 63.2179C53.8158 62.7701 54.1591 62.397 54.6054 62.3599L58.0496 62.0728C58.5516 62.031 58.9821 62.4272 58.9821 62.9309V69.8133C58.9821 70.2612 58.6388 70.6342 58.1926 70.6714L54.7484 70.9584C54.2464 71.0003 53.8158 70.6041 53.8158 70.1003V63.2179Z" fill="var(--fill-0, #406288)"/>
<path id="Rectangle 3479095" d="M64.1472 63.5289C64.1472 62.9687 64.6736 62.5577 65.2171 62.6936L68.6613 63.5546C69.0446 63.6505 69.3135 63.9949 69.3135 64.39V71.2254C69.3135 71.7855 68.787 72.1966 68.2436 72.0607L64.7994 71.1996C64.4161 71.1038 64.1472 70.7594 64.1472 70.3643V63.5289Z" fill="var(--fill-0, #406288)"/>
<circle id="Ellipse 992" cx="30.7833" cy="37.6707" r="3.22893" fill="var(--fill-0, #2F5080)"/>
</g>
</g>
</svg>
