<svg preserveAspectRatio="none" width="100%" height="100%" overflow="visible" style="display: block;" viewBox="0 0 80.3858 85.6461" fill="none" xmlns="http://www.w3.org/2000/svg">
<g id="_&#229;&#155;&#190;&#229;&#177;&#130;_1" clip-path="url(#clip0_0_164)">
<g id="Group">
<path id="Vector" d="M46.1797 30.8469C46.1797 30.8469 45.3769 37.7797 55.545 37.5388C65.713 37.2979 64.9594 30.6659 64.9594 30.6659L46.1802 30.8469H46.1797Z" fill="var(--fill-0, #AF91F5)"/>
<path id="Vector_2" d="M19.4208 10.4212L10.9838 42.0642" stroke="var(--stroke-0, white)" stroke-width="0.85464" stroke-miterlimit="10"/>
<path id="Vector_3" d="M19.8943 9.94802L28.2914 41.5861" stroke="var(--stroke-0, white)" stroke-width="0.85464" stroke-miterlimit="10"/>
<path id="Vector_4" d="M54.3874 2.50251L47.1731 30.6661" stroke="var(--stroke-0, white)" stroke-width="0.85464" stroke-miterlimit="10"/>
<path id="Vector_5" d="M55.5452 2.11995L62.9693 30.2291" stroke="var(--stroke-0, white)" stroke-width="0.85464" stroke-miterlimit="10"/>
<path id="Vector_6" d="M55.4892 32.2036C60.5114 32.2036 64.5826 31.4097 64.5826 30.4302C64.5826 29.4508 60.5114 28.6569 55.4892 28.6569C50.4671 28.6569 46.3959 29.4508 46.3959 30.4302C46.3959 31.4097 50.4671 32.2036 55.4892 32.2036Z" fill="var(--fill-0, #8369BD)" stroke="var(--stroke-0, #D7CEFF)" stroke-width="0.908055" stroke-miterlimit="10"/>
</g>
<path id="Vector_7" d="M33.3398 4.99924C33.3398 4.99924 32.4851 4.45921 30.6183 4.79679C28.7514 5.13438 16.944 7.38315 16.5167 7.63046C16.0894 7.87777 14.6274 9.87976 17.2138 11.2066C17.5962 11.3529 18.2933 11.2066 18.2933 11.2066L33.3392 4.99924H33.3398Z" fill="var(--fill-0, #BD9EFF)"/>
<path id="Vector_8" d="M18.5631 7.9674C18.5631 7.9674 17.4611 8.28201 17.4387 9.69911C17.4162 11.1162 19.0807 11.2059 19.0807 11.2059L33.2944 8.25958C33.2944 8.25958 34.2617 7.49467 34.0593 6.19028C33.8568 4.88589 32.53 5.11076 32.53 5.11076L18.5636 7.96686L18.5631 7.9674Z" fill="var(--fill-0, #7D69AB)"/>
<path id="Vector_9" d="M0.140066 67.4971C0.140066 67.4971 -0.175082 73.7958 0.140066 73.9972C0.455214 74.1986 37.4723 85.646 39.7734 85.646C42.0746 85.646 46.7916 83.6899 46.7916 83.6899L79.8683 74.5437C79.8683 74.5437 80.3865 74.1986 80.3865 73.8247C80.3865 73.4508 80.3752 67.4971 80.3752 67.4971H0.140066Z" fill="var(--fill-0, #9F82E3)"/>
<path id="Vector_10" d="M1.44006 66.5914C1.44006 66.5914 -0.501574 67.3248 0.361612 67.7564C1.22426 68.1879 36.7313 78.0243 36.7313 78.0243C36.7313 78.0243 38.9748 78.887 41.3907 78.2401C43.8067 77.5927 79.8746 68.0581 79.8746 68.0581C79.8746 68.0581 81.0252 67.3248 79.8746 66.9797C78.7241 66.6346 41.7646 56.9414 41.7646 56.9414C41.7646 56.9414 37.3926 56.9991 36.7602 57.2288C36.1277 57.4585 1.44006 66.5914 1.44006 66.5914Z" fill="var(--fill-0, #E3D7FF)"/>
<path id="Vector_11" d="M19.8784 62.1588C19.8784 62.1588 19.3047 62.4963 19.2037 64.1826C19.1028 65.869 19.2037 67.5227 19.2037 67.5227C19.2037 67.5227 23.2184 71.0988 32.2931 71.2676C41.3677 71.4364 47.1029 70.7954 50.0044 69.7496C52.9059 68.7037 53.6142 67.0847 53.6142 67.0847C53.6142 67.0847 53.7151 63.5086 53.6142 63.1379C53.5132 62.7672 51.8937 61.451 51.8937 61.451C51.8937 61.451 24.1628 57.9764 19.8784 62.1593V62.1588Z" fill="var(--fill-0, #9F82E3)"/>
<path id="Vector_12" d="M36.4083 66.7811C45.5564 66.7811 52.9723 64.9081 52.9723 62.5976C52.9723 60.2872 45.5564 58.4142 36.4083 58.4142C27.2603 58.4142 19.8444 60.2872 19.8444 62.5976C19.8444 64.9081 27.2603 66.7811 36.4083 66.7811Z" fill="var(--fill-0, #DCCDFF)"/>
<path id="Vector_13" d="M27.0642 58.5717C27.0642 58.5717 26.74 58.7624 26.6828 59.7159C26.6257 60.6693 26.6828 61.6041 26.6828 61.6041C26.6828 61.6041 28.9524 63.6258 34.0824 63.7209C39.2124 63.816 42.4547 63.4539 44.0945 62.8625C45.7344 62.2712 46.135 61.3557 46.135 61.3557C46.135 61.3557 46.1921 59.334 46.135 59.1246C46.0778 58.9152 45.1623 58.1711 45.1623 58.1711C45.1623 58.1711 29.4861 56.207 27.0642 58.5717Z" fill="var(--fill-0, #9F82E3)"/>
<path id="Vector_14" d="M36.4092 61.1854C41.5806 61.1854 45.7728 60.1267 45.7728 58.8207C45.7728 57.5147 41.5806 56.456 36.4092 56.456C31.2378 56.456 27.0455 57.5147 27.0455 58.8207C27.0455 60.1267 31.2378 61.1854 36.4092 61.1854Z" fill="var(--fill-0, #DCCDFF)"/>
<path id="Vector_15" d="M64.2907 41.0648C64.2907 41.0648 65.6063 40.2529 66.3146 40.4777C67.0229 40.7026 67.6302 41.968 67.6302 41.968C67.6302 41.968 74.8664 64.1326 75.0186 64.5877C75.1708 65.0427 75.9261 66.5608 73.9562 67.1179C71.9862 67.675 71.4259 67.6745 71.4259 67.6745L64.2907 41.0648Z" fill="var(--fill-0, white)"/>
<path id="Vector_16" d="M34.6545 9.17807C34.6545 9.17807 35.2618 9.61661 35.6779 9.66255L35.734 59.8203C35.734 59.8203 34.8906 60.0019 34.5872 59.1969L34.6545 9.17807Z" fill="var(--fill-0, #EDE5FF)"/>
<path id="Vector_17" d="M35.6 9.47771V60.2305C35.6 60.2305 37.5678 60.5585 38.5127 59.589V10.1529" fill="var(--fill-0, #7D69AB)"/>
<path id="Vector_18" d="M42.7337 2.56899C42.7337 2.56899 54.8621 0.0632944 55.2894 0.0114818C55.7168 -0.0403307 57.3363 0.0114818 57.5836 1.29024C57.8309 2.56899 56.3689 3.58121 55.8295 3.62607C53.1555 3.84881 50.5756 4.65752 44.1006 3.96366C43.2444 3.87178 43.192 2.59997 42.7342 2.56899H42.7337Z" fill="var(--fill-0, #BD9EFF)"/>
<path id="Vector_19" d="M43.2224 3.15568C43.2224 3.15568 44.1331 4.0162 43.8463 6.19179L55.8283 3.62787C55.8283 3.62787 56.9303 3.06541 56.6381 1.76102C56.3459 0.456622 54.5015 0.906376 54.5015 0.906376L43.2224 3.15568Z" fill="var(--fill-0, #7D69AB)"/>
<path id="Vector_20" d="M56.2955 56.8445C56.2955 56.8445 54.2716 60.5386 54.2716 61.0952C54.2716 61.6518 53.9175 62.3601 55.2838 62.8665C56.6502 63.3728 71.0215 67.5729 71.4264 67.6738C71.8313 67.7748 73.1469 67.8763 72.3371 64.9411C71.5273 62.006 65.4551 42.4619 65.4551 42.4619C65.4551 42.4619 64.6453 39.4723 63.1273 42.2376C61.6092 45.0029 56.296 56.8445 56.296 56.8445H56.2955Z" fill="var(--fill-0, #9F82E3)"/>
<path id="Vector_21" d="M39.2084 11.3532C39.2084 11.3532 32.7649 9.98309 32.36 9.47725C31.9552 8.97141 28.5489 5.55285 32.0566 1.28285C33.2206 -0.13371 34.4988 0.0179882 34.4988 0.0179882L41.064 1.13116V9.48099L39.2084 11.3532Z" fill="var(--fill-0, #EDE5FF)"/>
<path id="Vector_22" d="M40.1936 11.6717C42.5132 11.6717 44.3937 9.28911 44.3937 6.35C44.3937 3.41088 42.5132 1.02826 40.1936 1.02826C37.874 1.02826 35.9936 3.41088 35.9936 6.35C35.9936 9.28911 37.874 11.6717 40.1936 11.6717Z" fill="var(--fill-0, #7D69AB)"/>
<path id="Vector_23" d="M40.2801 9.17711C41.6356 9.17711 42.7345 7.89695 42.7345 6.3178C42.7345 4.73865 41.6356 3.4585 40.2801 3.4585C38.9246 3.4585 37.8257 4.73865 37.8257 6.3178C37.8257 7.89695 38.9246 9.17711 40.2801 9.17711Z" fill="var(--fill-0, #D6AF3A)"/>
<g id="Group_2">
<path id="Vector_24" d="M9.89187 42.2605C9.89187 42.2605 9.01213 49.8588 20.155 49.5944C31.2985 49.33 30.4727 42.0623 30.4727 42.0623L9.89187 42.2605Z" fill="var(--fill-0, #AF91F5)"/>
<path id="Vector_25" d="M20.0949 43.7474C25.599 43.7474 30.061 42.8771 30.061 41.8036C30.061 40.7301 25.599 39.8598 20.0949 39.8598C14.5907 39.8598 10.1287 40.7301 10.1287 41.8036C10.1287 42.8771 14.5907 43.7474 20.0949 43.7474Z" fill="var(--fill-0, #8369BD)" stroke="var(--stroke-0, #D7CEFF)" stroke-width="0.908055" stroke-miterlimit="10"/>
</g>
</g>
<defs>
<clipPath id="clip0_0_164">
<rect width="80.3858" height="85.6461" fill="white"/>
</clipPath>
</defs>
</svg>
