<svg preserveAspectRatio="none" width="100%" height="100%" overflow="visible" style="display: block;" viewBox="0 0 86 86" fill="none" xmlns="http://www.w3.org/2000/svg">
<g id="Frame 633567" clip-path="url(#clip0_0_109)">
<path id="Vector" d="M59.484 28.8602L65.1457 24.1388C65.1457 24.1388 61.4121 20.2825 60.2887 19.7663L62.7475 13.7858L55.4908 10.0522L52.3023 15.4861C52.3023 15.4861 49.3272 13.5738 43.103 13.5738L42.5564 7.28906L34.2383 7.92648V14.2718C34.2383 14.2718 29.7749 15.0303 26.3442 17.3377L22.3062 12.6018L15.9912 17.6723L19.0874 22.8942C19.0874 22.8942 14.8981 26.4764 13.9867 29.8467L7.97592 27.8118L5.09312 35.3426L10.8919 38.1965C10.8919 38.1965 9.64733 42.6296 10.1333 47.0309L4 48.5177L5.30512 56.745L11.5596 56.1076C11.5596 56.1076 12.5013 60.1152 15.3855 64.0623L10.8919 68.8285L16.3561 75.1738L21.5477 71.1662C21.5477 71.1662 26.1019 74.9921 27.8627 75.6598L26.1927 81.884L33.8129 84.7682L36.6365 78.9392L42.2233 79.6372L43.3467 71.9867C43.3467 71.9867 12.1667 68.5891 18.9072 36.952C26.3456 17.3377 51.6057 17.6117 59.484 28.8602Z" fill="var(--fill-0, #3A87D6)"/>
<path id="Vector_2" d="M41.8216 25.6875C37.8976 25.6875 34.7178 28.6236 34.7178 32.2448H48.927C48.927 28.6236 45.7456 25.6875 41.8231 25.6875H41.8216Z" fill="var(--fill-0, #3A87D6)"/>
<path id="Vector_3" d="M48.6753 32.2461H34.7387C34.2234 32.2461 33.8057 32.6638 33.8057 33.1791V33.1806C33.8057 33.6959 34.2234 34.1136 34.7387 34.1136H48.6753C49.1906 34.1136 49.6084 33.6959 49.6084 33.1806V33.1791C49.6084 32.6638 49.1906 32.2461 48.6753 32.2461Z" fill="var(--fill-0, #3A87D6)"/>
<path id="Vector_4" d="M35.6368 35.3418C35.6022 35.61 35.582 35.884 35.582 36.1609C35.582 39.6321 38.3552 42.4457 41.7759 42.4457C45.1966 42.4457 47.9698 39.6321 47.9698 36.1609C47.9698 35.8826 47.9496 35.61 47.915 35.3418H35.6368Z" fill="var(--fill-0, #3A87D6)"/>
<path id="Vector_5" d="M56.5637 55.804C56.2493 48.6122 49.7699 42.8711 41.8224 42.8711C33.8749 42.8711 27.394 48.6136 27.0811 55.804H56.5651H56.5637Z" fill="var(--fill-0, #3A87D6)"/>
<path id="Vector_6" d="M34.7166 58.4082H24.6377V62.9624H34.7166V58.4082Z" fill="var(--fill-0, #3A87D6)"/>
<path id="Vector_7" d="M46.8592 58.4082H36.7803V62.9624H46.8592V58.4082Z" fill="var(--fill-0, #3A87D6)"/>
<path id="Vector_8" d="M59.0047 58.4082H48.9258V62.9624H59.0047V58.4082Z" fill="var(--fill-0, #3A87D6)"/>
<path id="Vector_9" d="M31.9341 34.242L31.0445 35.1316C30.8654 35.3106 30.5756 35.3106 30.3966 35.1316L30.2119 34.947C30.0329 34.7679 30.0329 34.4781 30.2119 34.2991L31.106 33.405C30.7602 33.2259 30.354 33.1476 29.9243 33.2159C29.103 33.3468 28.4517 34.0171 28.341 34.8407C28.2917 35.2088 28.3499 35.5591 28.4864 35.8679L22.8321 41.5223C22.737 41.6174 22.737 41.7707 22.8321 41.8658L23.6635 42.6972C23.7441 42.7778 23.875 42.7778 23.9556 42.6972L29.7173 36.9354C30.0474 37.0283 30.4111 37.0406 30.7949 36.9187C31.4999 36.6937 32.0292 36.0805 32.1243 35.3464C32.1758 34.9458 32.0997 34.5676 31.9352 34.2409L31.9341 34.242ZM23.8369 41.8826C23.7306 41.8826 23.6445 41.7964 23.6445 41.6901C23.6445 41.5838 23.7306 41.4976 23.8369 41.4976C23.9433 41.4976 24.0294 41.5838 24.0294 41.6901C24.0294 41.7964 23.9433 41.8826 23.8369 41.8826Z" fill="var(--fill-0, #3A87D6)"/>
<g id="Group">
<path id="Vector_10" d="M24.5024 34.3404C24.2909 34.0405 23.6709 33.4575 23.4773 33.3859C23.2826 33.3154 22.9827 33.3501 22.8585 33.7216C22.7343 34.0931 23.3352 34.7466 23.4941 34.8529C23.653 34.9592 26.1618 37.3617 26.1618 37.3617L26.8332 36.7082C26.8332 36.7082 24.7127 34.6414 24.5012 34.3404H24.5024Z" fill="var(--fill-0, #3A87D6)"/>
<path id="Vector_11" d="M30.5265 39.8522C29.29 39.0744 29.4254 38.7701 29.3784 38.6503C29.3255 38.5146 29.2151 38.4336 29.0472 38.4075L27.6473 39.6575C27.6473 39.6575 27.4884 40.0457 27.842 40.17C28.1957 40.2942 28.566 40.4699 29.0439 41.054C29.5206 41.637 31.0939 43.4218 31.8537 42.6967C32.6135 41.9727 31.7653 40.6299 30.5288 39.8522H30.5265Z" fill="var(--fill-0, #3A87D6)"/>
</g>
<g id="_&#229;&#155;&#190;&#229;&#177;&#130;_1" clip-path="url(#clip1_0_109)">
<path id="Vector_12" d="M59.4704 30.6411H57.392C57.0046 30.6411 56.6906 30.9551 56.6906 31.3425C56.6906 31.7299 57.0046 32.044 57.392 32.044H59.4704C59.8578 32.044 60.1718 31.7299 60.1718 31.3425C60.1718 30.9551 59.8578 30.6411 59.4704 30.6411Z" stroke="var(--stroke-0, #3A87D6)" stroke-width="0.528547" stroke-miterlimit="10"/>
<path id="Vector_13" d="M59.6 35.5233V31.9492H57.2495V35.5143C55.3351 36.0251 53.925 37.7704 53.925 39.8457C53.925 42.3216 55.9319 44.3285 58.4078 44.3285C60.8837 44.3285 62.8906 42.3216 62.8906 39.8457C62.8906 37.7829 61.4972 36.0458 59.6 35.5237V35.5233Z" stroke="var(--stroke-0, #3A87D6)" stroke-width="0.415287" stroke-miterlimit="10"/>
<path id="Vector_14" d="M59.0536 39.4155C58.815 39.3695 54.6697 38.5978 54.0203 39.963C53.4344 41.1949 55.6025 44.3273 58.385 44.3273C60.7955 44.3273 62.7496 42.3731 62.7496 39.963L59.0539 39.4155H59.0536ZM57.1195 41.7423C56.7616 41.7423 56.4716 41.4523 56.4716 41.0944C56.4716 40.7365 56.7616 40.4466 57.1195 40.4466C57.4774 40.4466 57.7673 40.7365 57.7673 41.0944C57.7673 41.4523 57.4774 41.7423 57.1195 41.7423ZM58.7391 42.4973C58.4744 42.4973 58.26 42.2829 58.26 42.0183C58.26 41.7536 58.4744 41.5392 58.7391 41.5392C59.0037 41.5392 59.2182 41.7536 59.2182 42.0183C59.2182 42.2829 59.0037 42.4973 58.7391 42.4973ZM60.3915 41.5463C60.2285 41.5463 60.0959 41.4142 60.0959 41.2507C60.0959 41.0873 60.2281 40.9551 60.3915 40.9551C60.555 40.9551 60.6872 41.0873 60.6872 41.2507C60.6872 41.4142 60.555 41.5463 60.3915 41.5463Z" fill="var(--fill-0, #3A87D6)"/>
</g>
<g id="_&#229;&#155;&#190;&#229;&#177;&#130;_1_2" clip-path="url(#clip2_0_109)">
<path id="Vector_15" d="M65.2703 48.2113H62.0971C61.6439 48.2113 61.2764 48.5787 61.2764 49.032V52.2052C61.2764 52.6585 61.6439 53.0259 62.0971 53.0259H65.2703C65.7236 53.0259 66.091 52.6585 66.091 52.2052V49.032C66.091 48.5787 65.7236 48.2113 65.2703 48.2113Z" stroke="var(--stroke-0, #3A87D6)" stroke-width="0.652468" stroke-miterlimit="10"/>
<path id="Vector_16" d="M64.4179 49.3363H62.9504C62.6229 49.3363 62.3574 49.6017 62.3574 49.9292V51.3968C62.3574 51.7243 62.6229 51.9897 62.9504 51.9897H64.4179C64.7454 51.9897 65.0109 51.7243 65.0109 51.3968V49.9292C65.0109 49.6017 64.7454 49.3363 64.4179 49.3363Z" fill="var(--fill-0, #3A87D6)"/>
<path id="Vector_17" d="M62.356 46.3242H62.1399C62.1022 46.3242 62.0716 46.3548 62.0716 46.3925V47.4479C62.0716 47.4856 62.1022 47.5162 62.1399 47.5162H62.356C62.3937 47.5162 62.4242 47.4856 62.4242 47.4479V46.3925C62.4242 46.3548 62.3937 46.3242 62.356 46.3242Z" fill="var(--fill-0, #3A87D6)"/>
<path id="Vector_18" d="M63.7924 46.3242H63.5763C63.5386 46.3242 63.508 46.3548 63.508 46.3925V47.4479C63.508 47.4856 63.5386 47.5162 63.5763 47.5162H63.7924C63.8301 47.5162 63.8606 47.4856 63.8606 47.4479V46.3925C63.8606 46.3548 63.8301 46.3242 63.7924 46.3242Z" fill="var(--fill-0, #3A87D6)"/>
<path id="Vector_19" d="M65.2288 46.3242H65.0127C64.975 46.3242 64.9444 46.3548 64.9444 46.3925V47.4479C64.9444 47.4856 64.975 47.5162 65.0127 47.5162H65.2288C65.2665 47.5162 65.297 47.4856 65.297 47.4479V46.3925C65.297 46.3548 65.2665 46.3242 65.2288 46.3242Z" fill="var(--fill-0, #3A87D6)"/>
<path id="Vector_20" d="M62.356 53.8103H62.1399C62.1022 53.8103 62.0716 53.8409 62.0716 53.8786V54.934C62.0716 54.9717 62.1022 55.0023 62.1399 55.0023H62.356C62.3937 55.0023 62.4242 54.9717 62.4242 54.934V53.8786C62.4242 53.8409 62.3937 53.8103 62.356 53.8103Z" fill="var(--fill-0, #3A87D6)"/>
<path id="Vector_21" d="M63.7924 53.8103H63.5763C63.5386 53.8103 63.508 53.8409 63.508 53.8786V54.934C63.508 54.9717 63.5386 55.0023 63.5763 55.0023H63.7924C63.8301 55.0023 63.8606 54.9717 63.8606 54.934V53.8786C63.8606 53.8409 63.8301 53.8103 63.7924 53.8103Z" fill="var(--fill-0, #3A87D6)"/>
<path id="Vector_22" d="M65.2288 53.8103H65.0127C64.975 53.8103 64.9444 53.8409 64.9444 53.8786V54.934C64.9444 54.9717 64.975 55.0023 65.0127 55.0023H65.2288C65.2665 55.0023 65.297 54.9717 65.297 54.934V53.8786C65.297 53.8409 65.2665 53.8103 65.2288 53.8103Z" fill="var(--fill-0, #3A87D6)"/>
<path id="Vector_23" d="M59.3454 51.9906V52.2067C59.3454 52.2444 59.3759 52.275 59.4136 52.275H60.469C60.5067 52.275 60.5373 52.2444 60.5373 52.2067V51.9906C60.5373 51.9529 60.5067 51.9224 60.469 51.9224H59.4136C59.3759 51.9224 59.3454 51.9529 59.3454 51.9906Z" fill="var(--fill-0, #3A87D6)"/>
<path id="Vector_24" d="M59.3454 50.5542V50.7703C59.3454 50.808 59.3759 50.8386 59.4136 50.8386H60.469C60.5067 50.8386 60.5373 50.808 60.5373 50.7703V50.5542C60.5373 50.5165 60.5067 50.486 60.469 50.486H59.4136C59.3759 50.486 59.3454 50.5165 59.3454 50.5542Z" fill="var(--fill-0, #3A87D6)"/>
<path id="Vector_25" d="M59.3454 49.1178V49.3339C59.3454 49.3716 59.3759 49.4022 59.4136 49.4022H60.469C60.5067 49.4022 60.5373 49.3716 60.5373 49.3339V49.1178C60.5373 49.0801 60.5067 49.0496 60.469 49.0496H59.4136C59.3759 49.0496 59.3454 49.0801 59.3454 49.1178Z" fill="var(--fill-0, #3A87D6)"/>
<path id="Vector_26" d="M66.8306 51.9906V52.2067C66.8306 52.2444 66.8611 52.275 66.8989 52.275H67.9543C67.992 52.275 68.0225 52.2444 68.0225 52.2067V51.9906C68.0225 51.9529 67.992 51.9224 67.9543 51.9224H66.8989C66.8611 51.9224 66.8306 51.9529 66.8306 51.9906Z" fill="var(--fill-0, #3A87D6)"/>
<path id="Vector_27" d="M66.8306 50.5542V50.7703C66.8306 50.808 66.8611 50.8386 66.8989 50.8386H67.9543C67.992 50.8386 68.0225 50.808 68.0225 50.7703V50.5542C68.0225 50.5165 67.992 50.486 67.9543 50.486H66.8989C66.8611 50.486 66.8306 50.5165 66.8306 50.5542Z" fill="var(--fill-0, #3A87D6)"/>
<path id="Vector_28" d="M66.8306 49.1178V49.3339C66.8306 49.3716 66.8611 49.4022 66.8989 49.4022H67.9543C67.992 49.4022 68.0225 49.3716 68.0225 49.3339V49.1178C68.0225 49.0801 67.992 49.0496 67.9543 49.0496H66.8989C66.8611 49.0496 66.8306 49.0801 66.8306 49.1178Z" fill="var(--fill-0, #3A87D6)"/>
</g>
<g id="_&#229;&#155;&#190;&#229;&#177;&#130;_1_3" clip-path="url(#clip3_0_109)">
<path id="Vector_29" d="M70.6117 58.7503C70.6117 58.7503 67.8494 58.6445 65.8396 59.5295L70.4828 63.6021C70.4828 63.6021 71.0437 60.7244 70.6117 58.7503Z" fill="var(--fill-0, #3A87D6)"/>
<path id="Vector_30" d="M55.0451 80.1379C52.964 82.5105 48.8769 83.5297 48.8769 83.5297C48.8769 83.5297 49.0842 80.0552 51.4227 76.9606C52.2246 75.8987 53.8224 75.8608 54.8225 76.738C55.8226 77.6152 55.9223 79.1377 55.0451 80.1379Z" fill="var(--fill-0, #3A87D6)"/>
<path id="Vector_31" d="M62.1723 75.0607C69.0093 70.4052 70.2422 64.2647 70.2422 64.2647L65.0889 59.7447C58.5003 62.3161 55.4372 69.1532 55.4372 69.1532L53.4134 69.3307C53.3312 69.3379 53.255 69.3768 53.2008 69.4386L49.9888 73.1006C49.801 73.3147 49.9649 73.6493 50.2493 73.6315L53.5689 73.4271L53.1804 74.3499L57.3134 77.975L58.212 77.4996L58.4803 80.6087C58.5044 80.89 58.8542 81.0045 59.0402 80.7925L62.1746 77.2189C62.2288 77.1571 62.2574 77.0764 62.2539 76.994L62.1722 75.0599L62.1723 75.0607ZM62.889 67.3991C61.8348 66.4744 61.7298 64.87 62.6545 63.8157C63.5792 62.7615 65.1835 62.6564 66.2378 63.5811C67.2921 64.5058 67.3971 66.1102 66.4724 67.1645C65.5477 68.2187 63.9433 68.3238 62.889 67.3991Z" fill="var(--fill-0, #3A87D6)"/>
</g>
</g>
<defs>
<clipPath id="clip0_0_109">
<rect width="86" height="86" fill="white"/>
</clipPath>
<clipPath id="clip1_0_109">
<rect width="9.38057" height="14.1583" fill="white" transform="translate(53.7168 30.377)"/>
</clipPath>
<clipPath id="clip2_0_109">
<rect width="8.67703" height="8.67703" fill="white" transform="translate(59.3457 46.3242)"/>
</clipPath>
<clipPath id="clip3_0_109">
<rect width="11.8768" height="32.9611" fill="white" transform="translate(66.0713 54.7676) rotate(41.2544)"/>
</clipPath>
</defs>
</svg>
