<svg preserveAspectRatio="none" width="100%" height="100%" overflow="visible" style="display: block;" viewBox="0 0 14.5306 22.9637" fill="none" xmlns="http://www.w3.org/2000/svg">
<g id="_&#229;&#155;&#190;&#229;&#177;&#130;_1" clip-path="url(#clip0_0_301)">
<path id="Vector" d="M14.4329 18.6187C14.2105 17.8036 9.98509 7.44967 9.98509 7.44967V2.13158C9.98509 1.87571 10.1923 1.66855 10.4481 1.66855C10.9088 1.66855 11.282 1.29531 11.282 0.834629C11.2826 0.37336 10.9088 0.000119824 10.4487 0.000119824H3.66583C3.20515 0.000119824 2.83191 0.37336 2.83191 0.834042C2.83191 1.29472 3.20515 1.66796 3.66583 1.66796H3.85127C4.10714 1.66796 4.3143 1.87512 4.3143 2.13099V7.45025H4.36008L0.385304 18.0137C0.385304 18.0137 -0.652257 20.5712 0.681666 21.4239C2.01618 22.2766 5.81665 23.6745 11.282 22.536C13.9505 21.9802 14.4323 20.3863 14.4323 20.3863C14.4323 20.3863 14.6547 19.435 14.4323 18.6193L14.4329 18.6187Z" fill="var(--fill-0, #FCFAFA)"/>
<path id="Vector_2" d="M2.78046 15.4939C2.92016 15.0729 3.36326 14.8333 3.79195 14.9476C4.54278 15.1478 5.7727 15.4065 7.10777 15.4065C8.44283 15.4065 9.7222 15.1391 10.4764 14.938C10.8936 14.8266 11.3266 15.0527 11.4768 15.4574L12.2589 17.5673C12.2704 17.598 12.2795 17.6287 12.2872 17.6604C12.3587 17.9557 12.6828 19.453 11.9915 19.8534C11.2234 20.2979 5.65269 21.7136 2.79438 19.8534C1.52077 19.0248 1.66239 18.863 1.66239 18.863L2.78046 15.4939Z" fill="var(--fill-0, #D6AF3A)"/>
</g>
<defs>
<clipPath id="clip0_0_301">
<rect width="14.5306" height="22.9637" fill="white"/>
</clipPath>
</defs>
</svg>
