<svg preserveAspectRatio="none" width="100%" height="100%" overflow="visible" style="display: block;" viewBox="0 0 111 111" fill="none" xmlns="http://www.w3.org/2000/svg">
<g id="download-20 1">
<path id="Vector 30" d="M97.0166 68.3994V79.6729L57.2344 101.678L22.2217 85.0928L17.7773 82.8164L18.3193 74.1445L21.5713 71.2178L97.0166 68.3994Z" fill="var(--fill-0, white)"/>
<path id="Vector 29" d="M57.4349 100.504L96.8319 79.704C96.8319 79.6224 96.8808 79.3614 97.0765 78.9699C98.8384 79.442 98.4632 80.9611 98.0553 81.6616L57.4349 103.195C46.7859 98.1381 23.9977 87.2408 18.0378 84.1086C14.7099 78.3444 17.4668 73.0608 19.2613 71.1394L64.5311 53.7656L97.5658 67.9583L55.9665 87.5344C45.3629 83.1298 23.4214 74.0269 20.485 72.8523C17.5486 77.9384 19.2615 81.9863 20.485 83.3745L57.4349 100.504Z" fill="var(--fill-0, #597BA6)"/>
<path id="Rectangle 3479105" d="M78.6909 52.6838H81.9969V59.2475C81.2209 60.193 79.9697 60.5958 78.6909 59.2475V52.6838Z" fill="var(--fill-0, #D6AF3A)"/>
<path id="Vector" d="M35.052 41.7731L60.5085 29.2102L85.965 41.7731L60.5085 54.3361L35.052 41.7731Z" fill="var(--fill-0, #2E2E2E)"/>
<path id="Vector_2" d="M43.9789 46.402V62.6016C43.9789 65.5231 51.3799 67.8912 60.5092 67.8912C69.6385 67.8912 77.0394 65.5231 77.0394 62.6016V46.402L60.5092 54.3365L43.9789 46.402Z" fill="var(--fill-0, #162542)"/>
<path id="Vector_3" d="M80.3466 43.4263V53.8404" stroke="var(--stroke-0, #D6AF3A)" stroke-width="0.661208" stroke-linecap="round"/>
<path id="Vector_4" d="M80.3439 54.3362C81.2568 54.3362 81.9969 53.5961 81.9969 52.6832C81.9969 51.7702 81.2568 51.0302 80.3439 51.0302C79.431 51.0302 78.6909 51.7702 78.6909 52.6832C78.6909 53.5961 79.431 54.3362 80.3439 54.3362Z" fill="var(--fill-0, #D6AF3A)"/>
<path id="Vector_5" d="M49.2671 41.7732L60.5076 36.4835L80.1786 43.2609" stroke="var(--stroke-0, #D6AF3A)" stroke-width="0.661208" stroke-linecap="round" stroke-linejoin="round"/>
<line id="Line 12" x1="22.8301" y1="77.496" x2="52.7811" y2="89.9042" stroke="var(--stroke-0, #999999)" stroke-width="0.433594" stroke-linecap="round"/>
<line id="Line 13" x1="22.8301" y1="79.6639" x2="52.7811" y2="92.0722" stroke="var(--stroke-0, #999999)" stroke-width="0.433594" stroke-linecap="round"/>
<line id="Line 14" x1="22.8301" y1="81.8319" x2="52.7811" y2="94.2402" stroke="var(--stroke-0, #999999)" stroke-width="0.433594" stroke-linecap="round"/>
</g>
</svg>
