<svg preserveAspectRatio="none" width="100%" height="100%" overflow="visible" style="display: block;" viewBox="0 0 80.1031 80.5916" fill="none" xmlns="http://www.w3.org/2000/svg">
<g id="_&#229;&#155;&#190;&#229;&#177;&#130;_1" clip-path="url(#clip0_0_33)">
<path id="Vector" d="M8.67357 1.54528C8.67357 1.54528 8.60354 0.0346586 9.83072 0.0346586C11.0579 0.0346586 14.6044 -0.457211 15.1312 2.21056C15.1312 4.52651 15.1312 4.0013 15.1312 4.0013C15.1312 4.0013 14.8861 5.45523 13.0254 5.92209C13.0254 5.92209 9.77903 6.01713 9.58562 5.92209C9.3922 5.82705 8.77862 6.21387 8.77862 4.44148" fill="var(--fill-0, #5C7FA8)"/>
<path id="Vector_2" d="M36.1219 4.41967C36.1219 4.41967 36.1919 5.92863 34.9631 5.92863C33.7342 5.92863 30.1895 6.4205 29.6626 3.75273C29.6626 1.43677 29.6626 1.96199 29.6626 1.96199C29.6626 1.96199 29.9077 0.508058 31.7684 0.0411985C31.7684 0.0411985 35.0148 -0.0538407 35.2082 0.0411985C35.4016 0.136238 36.0152 -0.250589 36.0152 1.52181" fill="var(--fill-0, #5C7FA8)"/>
<path id="Vector_3" d="M34.0792 2.26243C37.9458 2.26243 41.1087 5.42541 41.1087 9.292V24.0464" stroke="var(--stroke-0, #5C7FA8)" stroke-width="1.66735" stroke-miterlimit="10"/>
<path id="Vector_4" d="M3.46914 23.9397V9.292C3.46914 5.42541 6.63211 2.26243 10.4987 2.26243" stroke="var(--stroke-0, #5C7FA8)" stroke-width="1.66735" stroke-miterlimit="10"/>
<path id="Vector_5" d="M41.2242 19.9028V31.5759C41.2242 41.2782 33.2859 49.2165 23.5836 49.2165H21.2243C11.5219 49.2165 3.58366 41.2782 3.58366 31.5759V19.9028" stroke="var(--stroke-0, #5C7FA8)" stroke-width="7.16962" stroke-miterlimit="10"/>
<path id="Vector_6" d="M24.1415 51.3186H20.6667C19.5617 51.3186 18.6659 52.2144 18.6659 53.3195V59.9539C18.6659 61.0589 19.5617 61.9547 20.6667 61.9547H24.1415C25.2465 61.9547 26.1423 61.0589 26.1423 59.9539V53.3195C26.1423 52.2144 25.2465 51.3186 24.1415 51.3186Z" fill="var(--fill-0, #5C7FA8)"/>
<path id="Vector_7" d="M46.3829 51.3186V65.7863C46.3829 72.324 41.034 77.6728 34.4963 77.6728C27.9586 77.6728 22.6098 72.324 22.6098 65.7863" stroke="var(--stroke-0, #5C7FA8)" stroke-width="5.83574" stroke-miterlimit="10"/>
<path id="Vector_8" d="M46.3836 62.3939V47.9262C46.3836 41.3885 51.7324 36.0397 58.2701 36.0397C64.8078 36.0397 70.1567 41.3885 70.1567 47.9262" stroke="var(--stroke-0, #5C7FA8)" stroke-width="5.83574" stroke-miterlimit="10"/>
<path id="Vector_9" d="M70.157 66.9759C74.0393 66.9759 77.1866 63.8287 77.1866 59.9464C77.1866 56.0641 74.0393 52.9168 70.157 52.9168C66.2747 52.9168 63.1274 56.0641 63.1274 59.9464C63.1274 63.8287 66.2747 66.9759 70.157 66.9759Z" fill="var(--fill-0, #D6AF3A)" stroke="var(--stroke-0, #5C7FA8)" stroke-width="5.83574" stroke-miterlimit="10"/>
</g>
<defs>
<clipPath id="clip0_0_33">
<rect width="80.1031" height="80.5916" fill="white"/>
</clipPath>
</defs>
</svg>
