<svg preserveAspectRatio="none" width="100%" height="100%" overflow="visible" style="display: block;" viewBox="0 0 20.708 16.9073" fill="none" xmlns="http://www.w3.org/2000/svg">
<g id="Group 201">
<g id="Union" filter="url(#filter0_d_0_313)">
<path d="M19.5137 0.127657C20.148 0.0492972 20.7079 0.544136 20.708 1.18332V13.8171C20.7079 14.4044 20.2318 14.8803 19.6445 14.8806H12.9922C12.9038 14.9397 12.8087 15.0004 12.7051 15.0603C10.1537 16.5333 8.09805 15.6753 7.3877 15.0613H1.06348C0.476064 15.0612 7.2293e-05 14.5852 0 13.9978V1.40793C0.000222853 0.756417 0.580564 0.258464 1.22461 0.357149L9.59766 1.64035C10.1242 1.72141 10.5103 2.17986 10.5 2.71262L10.3223 11.8689H10.7744V2.15012C10.7746 1.61332 11.1743 1.16044 11.707 1.09445L19.5137 0.127657Z" fill="var(--fill-0, #1A73E8)"/>
</g>
<path id="Union_2" d="M18.9728 1.46185e-05C19.269 0.000232255 19.509 0.241883 19.509 0.538101V12.2891C19.509 12.6061 19.2362 12.8547 18.9201 12.8311C15.4943 12.5728 13.4277 12.8887 10.6418 14.5762C10.4908 14.6675 10.3212 14.6767 10.173 14.6279C10.0349 14.6609 9.88236 14.6429 9.74627 14.5567C7.10694 12.8813 4.96209 12.1776 1.74041 12.376C1.42343 12.3955 1.14959 12.1477 1.14959 11.8301V0.537124C1.14971 0.241048 1.38964 -0.000852714 1.68572 0.00294431C4.9293 0.044606 7.02663 0.766218 9.82732 1.85841C9.88136 1.71917 9.99158 1.60548 10.1369 1.5508C13.3354 0.347544 15.3653 -0.00260991 18.9728 1.46185e-05Z" fill="var(--fill-0, white)"/>
<path id="Line 6" d="M10.5195 3.88339C10.5195 3.77777 10.4339 3.69215 10.3282 3.69215C10.2226 3.69215 10.137 3.77777 10.137 3.88339H10.3282H10.5195ZM10.3282 3.88339H10.137V14.5925H10.3282H10.5195V3.88339H10.3282Z" fill="var(--stroke-0, #ECE2D7)"/>
<path id="Vector" d="M3.44601 6.56095C5.15491 6.31353 8.09751 6.92328 8.09751 6.92328" stroke="var(--stroke-0, #EDE4D8)" stroke-width="0.865838" stroke-linecap="round"/>
<path id="Vector_2" d="M3.12126 3.90632C4.83016 3.6589 7.77275 4.26865 7.77275 4.26865" stroke="var(--stroke-0, #EDE4D8)" stroke-width="0.865838" stroke-linecap="round"/>
<path id="Vector_3" d="M3.44329 8.48132C5.17584 8.38469 8.03293 9.24635 8.03293 9.24635" stroke="var(--stroke-0, #EDE4D8)" stroke-width="0.865838" stroke-linecap="round"/>
<path id="Vector_4" d="M3.44339 10.4005C5.17594 10.3038 8.03303 11.1655 8.03303 11.1655" stroke="var(--stroke-0, #EDE4D8)" stroke-width="0.865838" stroke-linecap="round"/>
<path id="Vector_5" d="M17.2125 6.56766C15.4799 6.47103 12.6228 7.3327 12.6228 7.3327" stroke="var(--stroke-0, #EDE4D8)" stroke-width="0.865838" stroke-linecap="round"/>
<path id="Vector_6" d="M17.2114 4.27377C15.4789 4.17714 12.6218 5.03881 12.6218 5.03881" stroke="var(--stroke-0, #EDE4D8)" stroke-width="0.865838" stroke-linecap="round"/>
<path id="Vector_7" d="M17.2124 1.9797C15.4798 1.88307 12.6227 2.74474 12.6227 2.74474" stroke="var(--stroke-0, #EDE4D8)" stroke-width="0.865838" stroke-linecap="round"/>
<path id="Vector_8" d="M17.2138 8.48056C15.4813 8.38393 12.6242 9.2456 12.6242 9.2456" stroke="var(--stroke-0, #EDE4D8)" stroke-width="0.865838" stroke-linecap="round"/>
<path id="Vector_9" d="M17.212 10.4009C15.4795 10.3043 12.6224 11.1659 12.6224 11.1659" stroke="var(--stroke-0, #EDE4D8)" stroke-width="0.865838" stroke-linecap="round"/>
<g id="Vector_10" filter="url(#filter1_d_0_313)">
<path d="M1.91198 6.49113L3.51996 5.13052L5.12795 6.49113V0.360234C3.81996 0.112854 3.22867 0.0713124 1.91198 0.00990034V6.49113Z" fill="var(--fill-0, #E8614E)"/>
</g>
</g>
<defs>
<filter id="filter0_d_0_313" x="0" y="0.11948" width="20.708" height="16.7879" filterUnits="userSpaceOnUse" color-interpolation-filters="sRGB">
<feFlood flood-opacity="0" result="BackgroundImageFix"/>
<feColorMatrix in="SourceAlpha" type="matrix" values="0 0 0 0 0 0 0 0 0 0 0 0 0 0 0 0 0 0 127 0" result="hardAlpha"/>
<feOffset dy="1.03328"/>
<feComposite in2="hardAlpha" operator="out"/>
<feColorMatrix type="matrix" values="0 0 0 0 0 0 0 0 0 0 0 0 0 0 0 0 0 0 0.25 0"/>
<feBlend mode="normal" in2="BackgroundImageFix" result="effect1_dropShadow_0_313"/>
<feBlend mode="normal" in="SourceGraphic" in2="effect1_dropShadow_0_313" result="shape"/>
</filter>
<filter id="filter1_d_0_313" x="1.91198" y="0.00990034" width="3.21597" height="7.51451" filterUnits="userSpaceOnUse" color-interpolation-filters="sRGB">
<feFlood flood-opacity="0" result="BackgroundImageFix"/>
<feColorMatrix in="SourceAlpha" type="matrix" values="0 0 0 0 0 0 0 0 0 0 0 0 0 0 0 0 0 0 127 0" result="hardAlpha"/>
<feOffset dy="1.03328"/>
<feComposite in2="hardAlpha" operator="out"/>
<feColorMatrix type="matrix" values="0 0 0 0 0 0 0 0 0 0 0 0 0 0 0 0 0 0 0.25 0"/>
<feBlend mode="normal" in2="BackgroundImageFix" result="effect1_dropShadow_0_313"/>
<feBlend mode="normal" in="SourceGraphic" in2="effect1_dropShadow_0_313" result="shape"/>
</filter>
</defs>
</svg>
