<svg preserveAspectRatio="none" width="100%" height="100%" overflow="visible" style="display: block;" viewBox="0 0 53.9993 51.0346" fill="none" xmlns="http://www.w3.org/2000/svg">
<g id="Group">
<path id="Vector" d="M52.4379 42.8249L25.3465 25.1617L26.5708 22.5941L53.9294 40.5451L52.4379 42.8249Z" fill="var(--fill-0, #1D1D1F)"/>
<path id="Vector_2" d="M2.39424 42.2712L0.835986 40.0135L26.5918 22.5716L27.8161 25.1392L2.39424 42.2712Z" fill="var(--fill-0, #1D1D1F)"/>
<path id="Vector_3" d="M28.3707 2.42918H25.6326V25.6924H28.3707V2.42918Z" fill="var(--fill-0, #1D1D1F)"/>
<path id="Vector_4" d="M51.3686 43.5106H2.63961C1.6824 43.5106 0.791965 43.0015 0.324488 42.1604C-0.14299 41.3193 -0.098468 40.3011 0.413531 39.5043L24.7891 1.14545C25.7686 -0.381818 28.2841 -0.381818 29.2413 1.14545L53.5946 39.4821C54.1066 40.3011 54.1289 41.3193 53.6837 42.1383C53.2162 42.9794 52.3258 43.4885 51.3686 43.4885V43.5106ZM27.0152 2.73913L2.72866 40.943L26.993 40.7881H51.3463L39.1474 21.9075L27.0152 2.73913Z" fill="var(--fill-0, #1D1D1F)"/>
<path id="Vector_5" d="M50.0986 43.4893C49.9205 44.264 49.6089 44.9059 49.0969 45.3929C45.4683 48.8237 34.3825 43.0466 24.3206 32.5107C14.2587 21.9747 9.02737 10.6641 12.6559 7.23325C14.1919 5.79452 17.0635 5.99373 20.6253 7.49886L20.9147 7.03404C15.5498 4.57713 11.0086 4.20084 8.58216 6.50282C3.75156 11.0625 9.02737 24.3874 20.3581 36.2514C31.6889 48.1154 44.7783 54.0474 49.6089 49.5099C51.0336 48.1818 51.5455 46.079 51.3229 43.4893H50.0986Z" fill="var(--fill-0, #1D1D1F)"/>
</g>
</svg>
