<svg preserveAspectRatio="none" width="100%" height="100%" overflow="visible" style="display: block;" viewBox="0 0 57.9986 12.4332" fill="none" xmlns="http://www.w3.org/2000/svg">
<g id="Group">
<g id="Group_2">
<path id="Vector" d="M27.1764 1.23371H21.0631C21.2291 0.752393 21.3176 0.381725 21.3563 0.188092C21.3729 0.105107 21.3121 0.027655 21.2235 0.027655H19.6081C19.5472 0.027655 19.4919 0.0663796 19.4809 0.127236C19.42 0.359595 19.2817 0.752394 19.0825 1.22818H15.835C15.6248 1.22818 15.4478 1.39968 15.4478 1.61544V2.26273C15.4478 2.47296 15.6193 2.64999 15.835 2.64999H18.402C18.3412 2.76617 18.2803 2.88235 18.2139 2.99853C17.5943 4.10501 16.2002 5.25021 15.8129 5.56002C15.7465 5.61534 15.7078 5.6928 15.7078 5.77578V7.25845C15.7078 7.47975 15.9623 7.61806 16.1448 7.49081C16.7589 7.07589 17.2956 6.64436 17.7769 6.20177V11.9112C17.7769 12.1269 17.9539 12.304 18.1697 12.304H18.8059C19.0217 12.304 19.1987 12.1269 19.1987 11.9112V9.96931H25.2456V11.9112C25.2456 12.1269 25.4226 12.304 25.6384 12.304H26.2746C26.4904 12.304 26.6674 12.1269 26.6674 11.9112V9.96931V8.55303V7.59593V6.17964V5.22254V4.19906C26.6674 3.98329 26.4904 3.80626 26.2746 3.80626H25.2511H19.8073C20.0673 3.4024 20.283 3.01513 20.4711 2.64999H27.1819C27.3921 2.64999 27.5692 2.47849 27.5692 2.26273V1.61544C27.5636 1.40521 27.3921 1.23371 27.1764 1.23371ZM25.2511 8.55303H19.2042V7.59593H25.2511V8.55303ZM25.2511 5.61534V6.17964H19.2042V5.61534C19.2042 5.39958 19.3813 5.22254 19.597 5.22254H24.8583C25.0741 5.22254 25.2511 5.39958 25.2511 5.61534Z" fill="var(--fill-0, #1D1D1F)"/>
<path id="Vector_2" d="M11.8537 1.1779H0.528945C0.313183 1.1779 0.13615 1.35493 0.13615 1.57069V2.20138C0.13615 2.41715 0.313183 2.59418 0.528945 2.59418H6.44304L4.4016 4.89011C4.28542 4.9897 4.16924 5.09481 4.0586 5.20546C4.05306 5.21099 4.05306 5.21099 4.04753 5.21652L0.0420985 9.71987C-0.00216047 9.76966 -0.00216005 9.83052 0.014437 9.88584C-0.0242895 10.0241 0.0144377 10.1791 0.13615 10.2842L0.611931 10.7046C0.77237 10.8485 1.0158 10.8374 1.1541 10.688L5.45828 5.84721C6.95755 4.64116 8.91048 4.49732 10.0059 5.59272C11.0128 6.59961 9.57436 8.82363 8.09169 10.8706C8.03083 10.9536 8.04743 11.0698 8.13042 11.1251L8.9658 11.7392C9.04879 11.8 9.16497 11.7834 9.22029 11.7005C10.7528 9.59816 12.9214 6.52769 10.9962 4.5969C10.0999 3.70066 8.84409 3.34105 7.55505 3.47936L8.32958 2.60525C8.33512 2.59972 8.33511 2.59418 8.34065 2.58865H11.8592C12.075 2.58865 12.252 2.41161 12.252 2.19585V1.56516C12.2465 1.35493 12.0695 1.1779 11.8537 1.1779Z" fill="var(--fill-0, #1D1D1F)"/>
<g id="Group_3">
<path id="Vector_3" d="M57.6058 2.99301H55.7635L56.267 2.12443H57.0138C57.2296 2.12443 57.4066 1.94739 57.4066 1.73163V1.08434C57.4066 0.868583 57.2296 0.691546 57.0138 0.691546H54.4247C54.4302 0.674948 54.4357 0.658351 54.4357 0.641754V0.193634C54.4357 0.0885191 54.3472 0 54.2421 0H53.1965C53.0914 0 53.0029 0.0885191 53.0029 0.193634V0.641754C53.0029 0.658351 53.0084 0.674948 53.0139 0.691546H50.2367C50.0209 0.691546 49.8439 0.868583 49.8439 1.08434V1.73163C49.8439 1.94739 50.0209 2.12443 50.2367 2.12443H51.1772L51.5147 2.99301H49.9324C49.7166 2.99301 49.5396 3.17005 49.5396 3.38581V4.03309C49.5396 4.24886 49.7166 4.42589 49.9324 4.42589H57.6058C57.8216 4.42589 57.9986 4.24886 57.9986 4.03309V3.38581C57.9986 3.16451 57.8216 2.99301 57.6058 2.99301ZM54.3306 2.99301H52.942L52.6045 2.12443H54.8285L54.3306 2.99301Z" fill="var(--fill-0, #1D1D1F)"/>
<path id="Vector_4" d="M55.0825 6.63306H52.4491C52.1449 6.63306 51.9014 6.88202 51.9014 7.18077C51.9014 7.48505 52.1504 7.72847 52.4491 7.72847H55.0825C55.3868 7.72847 55.6302 7.47952 55.6302 7.18077C55.6358 6.87649 55.3868 6.63306 55.0825 6.63306Z" fill="var(--fill-0, #1D1D1F)"/>
<path id="Vector_5" d="M57.4789 11.0199H55.4374V9.62022C56.6545 9.43212 57.584 8.35885 57.5286 7.08087C57.4733 5.74204 56.2949 4.71855 54.9506 4.71855H52.5551C51.2771 4.71855 50.1264 5.63692 49.988 6.90937C49.8387 8.25926 50.7847 9.42106 52.0461 9.62576C51.9908 9.85812 51.7971 10.3948 51.1056 10.6935C50.5855 10.9203 50.2481 11.0199 50.0489 11.0697C49.9272 11.0974 49.8387 11.208 49.8387 11.3353V12.154C49.8387 12.3255 49.988 12.4528 50.154 12.4307C51.006 12.2979 53.2964 11.7502 53.4568 9.65342H53.999V11.0254V12.1264H55.4319H57.4733C57.6946 12.1264 57.8717 11.9493 57.8717 11.7281V11.4238C57.8772 11.1969 57.7002 11.0199 57.4789 11.0199ZM55.0667 8.2648H52.4444C51.8469 8.2648 51.3601 7.77795 51.3601 7.18045C51.3601 6.58295 51.8469 6.09611 52.4444 6.09611H55.0667C55.6642 6.09611 56.1511 6.58295 56.1511 7.18045C56.1511 7.77795 55.6642 8.2648 55.0667 8.2648Z" fill="var(--fill-0, #1D1D1F)"/>
<path id="Vector_6" d="M49.1702 9.20549L48.119 9.78085V7.80027H49.2034C49.3583 7.80027 49.4855 7.67302 49.4855 7.51812L49.4745 6.69933C49.4745 6.54442 49.3472 6.42271 49.1923 6.42271H48.119V5.07281H49.0817C49.2366 5.07281 49.3638 4.94557 49.3638 4.79066V3.97187C49.3638 3.81697 49.2366 3.68972 49.0817 3.68972H45.8784C45.7235 3.68972 45.5963 3.81697 45.5963 3.97187V4.79066C45.5963 4.94557 45.7235 5.07281 45.8784 5.07281H46.6751V6.42271H45.7678C45.6129 6.42271 45.4856 6.54995 45.4856 6.70486V7.52365C45.4856 7.67856 45.6129 7.8058 45.7678 7.8058H46.6751V8.84035L46.5921 11.8998C46.5866 12.1155 46.8189 12.2594 47.0126 12.1487L49.4302 10.7546C49.5132 10.7048 49.5685 10.6162 49.5685 10.5167L49.5796 9.45444C49.5851 9.23868 49.3583 9.10591 49.1702 9.20549Z" fill="var(--fill-0, #1D1D1F)"/>
<path id="Vector_7" d="M46.0939 2.59471H49.2529C49.4078 2.59471 49.5295 2.473 49.5295 2.3181V1.49377C49.5295 1.33887 49.4078 1.21715 49.2529 1.21715H47.2225C47.3608 0.874148 47.5102 0.470286 47.6596 0.0332292H46.0995C45.9612 0.514545 45.7343 1.10651 45.585 1.45505C45.3028 2.16872 45.4964 2.59471 46.0939 2.59471Z" fill="var(--fill-0, #1D1D1F)"/>
</g>
<g id="Group_4">
<path id="Vector_8" d="M31.2882 3.82839H30.818C30.6022 3.82839 30.4252 4.00543 30.4252 4.22119V8.56409C30.4252 8.77985 30.6022 8.95689 30.818 8.95689H31.2882C31.504 8.95689 31.681 8.77985 31.681 8.56409V4.22119C31.681 3.99989 31.504 3.82839 31.2882 3.82839Z" fill="var(--fill-0, #1D1D1F)"/>
<path id="Vector_9" d="M35.724 4.58125H38.4348H39.0711H41.7819C41.9977 4.58125 42.1692 4.40975 42.1692 4.19399V3.55223C42.1692 3.33647 41.9977 3.16497 41.7819 3.16497H39.4639V2.48449H41.4998C41.7155 2.48449 41.887 2.31298 41.887 2.09722V1.45547C41.887 1.2397 41.7155 1.0682 41.4998 1.0682H39.4639V0.420914C39.4639 0.205152 39.2868 0.028117 39.0711 0.028117H38.4348C38.2191 0.028117 38.042 0.205152 38.042 0.420914V1.0682H36.0061C35.7904 1.0682 35.6189 1.2397 35.6189 1.45547V2.09722C35.6189 2.31298 35.7904 2.48449 36.0061 2.48449H38.042V3.16497H35.724C35.5082 3.16497 35.3367 3.33647 35.3367 3.55223V4.19399C35.3367 4.40975 35.5082 4.58125 35.724 4.58125Z" fill="var(--fill-0, #1D1D1F)"/>
<path id="Vector_10" d="M35.3834 7.85596L34.3986 4.5642C34.3377 4.35397 34.1164 4.23779 33.9118 4.29865L33.4636 4.43143C33.4526 4.43143 33.447 4.43696 33.4415 4.44249V3.46879H34.6199C34.8467 3.46879 35.0293 3.29729 35.0293 3.08153V2.43977C35.0293 2.22401 34.8467 2.05251 34.6199 2.05251H33.4415V0.3928C33.4415 0.177037 33.2645 0 33.0487 0H32.418C32.2022 0 32.0252 0.177037 32.0252 0.3928V2.05251H30.7362C30.5093 2.05251 30.3268 2.22401 30.3268 2.43977V3.08153C30.3268 3.29729 30.5093 3.46879 30.7362 3.46879H32.0252V11.9112C32.0252 12.1269 32.2022 12.304 32.418 12.304H33.0487C33.2645 12.304 33.4415 12.1269 33.4415 11.9112V5.726L34.1884 8.21556C34.2492 8.42579 34.4705 8.54197 34.6752 8.48112L35.1233 8.34834C35.328 8.28195 35.4442 8.06619 35.3834 7.85596Z" fill="var(--fill-0, #1D1D1F)"/>
<path id="Vector_11" d="M42.0979 10.8103C41.3787 10.7992 40.665 10.5779 40.0177 10.2681C40.1837 10.1298 40.3441 9.98599 40.4879 9.83661C40.9637 9.3221 41.3233 8.56417 41.4506 8.26542C41.4838 8.18244 41.5004 8.09945 41.5004 8.01093V7.45769C41.5004 7.09809 41.2127 6.81041 40.8531 6.81041H38.4963C38.524 6.74955 38.5461 6.69423 38.5682 6.63891L38.618 6.50613C38.6235 6.48953 38.6291 6.47847 38.6346 6.46187L38.6789 6.34569C38.6789 6.23504 38.524 6.20185 38.5074 6.19632H38.5018L37.7052 6.1078C37.589 6.09673 37.4728 6.15759 37.423 6.2627C37.2017 6.73849 36.8034 7.4245 36.0842 8.03859C35.7135 8.35394 35.3484 8.57523 35.033 8.73014C34.9335 8.77993 34.8726 8.87398 34.8781 8.98463L34.8947 9.66511C34.9003 9.85874 35.0994 9.99152 35.2765 9.91407C35.5144 9.80895 35.7965 9.67064 36.1008 9.48254C36.2059 9.42168 36.3331 9.42722 36.4272 9.50467C36.6485 9.68724 36.9417 9.9362 37.3179 10.2626C37.3179 10.2626 36.6983 10.4784 35.7301 10.6775C35.5033 10.7218 35.2765 10.766 35.0386 10.8048L34.9998 10.8103C34.9777 10.8158 34.9556 10.8158 34.9279 10.8214C34.7896 10.8435 34.69 10.9597 34.69 11.0925C34.69 11.3304 34.69 11.701 34.69 11.9666C34.69 12.1436 34.8449 12.2709 35.0164 12.2377C35.3263 12.1768 35.8408 12.0717 36.4106 11.9168C36.4272 11.9112 36.4383 11.9057 36.4549 11.9057C37.08 11.7342 37.7826 11.5074 38.3967 11.2142C38.4078 11.2086 38.4133 11.2086 38.4244 11.2031C38.4963 11.1699 38.5793 11.1699 38.6512 11.2031C39.8241 11.7729 41.3731 12.0828 42.0315 12.1934C42.203 12.2211 42.3579 12.0938 42.3579 11.9168V11.0759C42.38 10.932 42.2528 10.8158 42.0979 10.8103ZM39.5087 8.7578C39.4368 8.84079 39.3594 8.92377 39.2819 9.00122C39.1491 9.134 39.0163 9.25571 38.878 9.36636C38.7785 9.44381 38.6401 9.44381 38.535 9.37189C38.0426 9.00676 37.6498 8.65822 37.412 8.42586C37.4728 8.35947 37.5337 8.30415 37.5945 8.23223C37.6167 8.20456 37.6388 8.1769 37.6609 8.14924H39.2321C39.5475 8.14371 39.719 8.51991 39.5087 8.7578Z" fill="var(--fill-0, #1D1D1F)"/>
<path id="Vector_12" d="M36.7363 4.71833C36.5537 4.71833 36.4043 4.84558 36.3656 5.02261C36.2992 5.34902 36.0724 5.47073 35.8843 5.51499C35.7183 5.55372 35.6077 5.70862 35.6077 5.88013V6.27293C35.6077 6.51082 35.8234 6.68232 36.0558 6.64359C37.2895 6.4389 37.5329 5.60904 37.5606 5.1056C37.5717 4.88983 37.3946 4.7128 37.1844 4.7128H36.7363V4.71833Z" fill="var(--fill-0, #1D1D1F)"/>
<path id="Vector_13" d="M41.1257 5.02283C41.087 4.84579 40.9376 4.71855 40.755 4.71855H40.3124C40.0967 4.71855 39.9196 4.89558 39.9362 5.11135C39.9639 5.61479 40.2073 6.45018 41.441 6.64934C41.6734 6.68807 41.8891 6.51104 41.8891 6.27868V5.88588C41.8891 5.71437 41.7785 5.55947 41.6125 5.52074C41.4189 5.47095 41.1921 5.34924 41.1257 5.02283Z" fill="var(--fill-0, #1D1D1F)"/>
</g>
</g>
</g>
</svg>
