<svg xmlns="http://www.w3.org/2000/svg" viewBox="0 0 128 128" role="img" aria-label="Integrated circuit major icon">
  <circle cx="64" cy="64" r="56" fill="#f5f3ff"/>
  <rect x="36" y="36" width="56" height="56" rx="12" fill="#ede9fe" stroke="#7c3aed" stroke-width="7"/>
  <rect x="51" y="51" width="26" height="26" rx="6" fill="#fff" stroke="#14b8a6" stroke-width="5"/>
  <path d="M43 23v13M57 23v13M71 23v13M85 23v13M43 92v13M57 92v13M71 92v13M85 92v13M23 43h13M23 57h13M23 71h13M23 85h13M92 43h13M92 57h13M92 71h13M92 85h13" fill="none" stroke="#64748b" stroke-width="6" stroke-linecap="round"/>
  <path d="M64 51V38M64 90V77M51 64H38M90 64H77" fill="none" stroke="#f59e0b" stroke-width="5" stroke-linecap="round"/>
</svg>
